<svg width="24" height="24" viewBox="0 0 24 24" fill="none" xmlns="http://www.w3.org/2000/svg">
<path fill-rule="evenodd" clip-rule="evenodd" d="M17.9925 5H6.00259C5.15101 5 4.68913 5.99649 5.23953 6.64632L9.05236 11.1479C9.66427 11.8703 10.0001 12.7864 10.0001 13.7332V17.9978C10.0001 18.7271 10.7555 19.2111 11.418 18.9063L13.418 17.9863C13.7728 17.8231 14.0001 17.4683 14.0001 17.0778V13.7325C14.0001 12.7866 14.3353 11.8712 14.9463 11.149L18.756 6.64587C19.3058 5.99594 18.8439 5 17.9925 5ZM6.00259 3H17.9925C20.5465 3 21.9324 5.98782 20.2829 7.93762L16.4732 12.4408C16.1677 12.8019 16.0001 13.2595 16.0001 13.7325V17.0778C16.0001 18.2493 15.3181 19.3137 14.2538 19.8033L12.2538 20.7233C10.2663 21.6376 8.00009 20.1855 8.00009 17.9978V13.7332C8.00009 13.2598 7.83218 12.8018 7.52623 12.4405L3.71339 7.93896C2.06219 5.98949 3.44782 3 6.00259 3Z" fill="#12131A"/>
</svg>
