<svg width="24" height="24" viewBox="0 0 24 24" fill="none" xmlns="http://www.w3.org/2000/svg">
<path fill-rule="evenodd" clip-rule="evenodd" d="M3.02472 11.4505C2.75585 9.07808 4.61171 7 6.99927 7H17.0009C19.3884 7 21.2443 9.07808 20.9754 11.4505L20.2954 17.4504C20.0663 19.4723 18.3557 21 16.3209 21H7.67927C5.64443 21 3.93386 19.4724 3.70471 17.4504L3.02472 11.4505ZM6.99927 9C5.80549 9 4.87756 10.039 5.01199 11.2252L5.69199 17.2252C5.80657 18.2362 6.66185 19 7.67927 19H16.3209C17.3383 19 18.1936 18.2362 18.3081 17.2252L18.9881 11.2252C19.1226 10.039 18.1946 9 17.0009 9H6.99927Z" fill="#12131A"/>
<path fill-rule="evenodd" clip-rule="evenodd" d="M8 7C8 4.79086 9.79086 3 12 3C14.2091 3 16 4.79086 16 7V10C16 10.5523 15.5523 11 15 11C14.4477 11 14 10.5523 14 10V7C14 5.89543 13.1046 5 12 5C10.8954 5 10 5.89543 10 7V10C10 10.5523 9.55228 11 9 11C8.44772 11 8 10.5523 8 10V7Z" fill="#12131A"/>
</svg>
