<svg width="24" height="24" viewBox="0 0 24 24" fill="none" xmlns="http://www.w3.org/2000/svg">
<path fill-rule="evenodd" clip-rule="evenodd" d="M8.00012 6.58588L17.4143 16.0001L15.1214 18.293C13.9499 19.4646 12.0504 19.4646 10.8788 18.293L10.6318 18.046L9.63327 19.4582C8.32607 21.3069 5.66905 21.5332 4.06801 19.9322C2.46697 18.3312 2.69328 15.6741 4.54204 14.3669L5.95423 13.3684L5.70722 13.1214C4.53565 11.9498 4.53565 10.0503 5.70722 8.87877L8.00012 6.58588ZM8.00012 9.4143L7.12144 10.293C6.73091 10.6835 6.73091 11.3167 7.12144 11.7072L7.78783 12.3736C8.44532 13.0311 8.35238 14.1222 7.59317 14.659L5.6967 16C4.86022 16.5914 4.75783 17.7936 5.48222 18.518C6.20662 19.2424 7.4088 19.14 8.00025 18.3035L9.34119 16.407C9.878 15.6478 10.9691 15.5549 11.6266 16.2124L12.293 16.8788C12.6835 17.2693 13.3167 17.2693 13.7072 16.8788L14.5859 16.0001L8.00012 9.4143Z" fill="#12131A"/>
<path fill-rule="evenodd" clip-rule="evenodd" d="M10.4115 4.17427C11.9736 2.61224 14.5062 2.61224 16.0683 4.17427L19.8256 7.9315C21.3878 9.49358 21.3878 12.0263 19.8257 13.5884L15.9999 17.4142L6.58569 7.99997L10.4115 4.17427ZM14.6541 5.58851C13.8731 4.80749 12.6068 4.80749 11.8257 5.58851L9.41415 8L15.9999 14.5858L18.4115 12.1742C19.1925 11.3931 19.1925 10.1268 18.4114 9.34574L14.6541 5.58851Z" fill="#12131A"/>
</svg>
