<svg width="24" height="24" viewBox="0 0 24 24" fill="none" xmlns="http://www.w3.org/2000/svg">
<path fill-rule="evenodd" clip-rule="evenodd" d="M4.46455 4.46448C4.09577 4.83324 3.78467 5.2597 3.54497 5.73014C3.24318 6.32243 3.11737 6.96262 3.05782 7.69147C2.99998 8.39935 2.99999 9.2735 3 10.3573V10.4001V13.6001V13.6429C2.99999 14.7267 2.99998 15.6008 3.05782 16.3087C3.11737 17.0376 3.24318 17.6778 3.54497 18.27C4.02433 19.2109 4.78924 19.9758 5.73005 20.4551C6.32234 20.7569 6.96253 20.8827 7.69138 20.9423C8.39923 21.0001 9.27334 21.0001 10.3571 21.0001H10.3572H10.4H13.6H13.6428H13.6429C14.7267 21.0001 15.6008 21.0001 16.3086 20.9423C17.0375 20.8827 17.6777 20.7569 18.27 20.4551C18.7404 20.2154 19.1669 19.9043 19.5356 19.5355L18.1214 18.1213C17.9001 18.3426 17.6442 18.5293 17.362 18.6731C17.0986 18.8073 16.7509 18.8995 16.1458 18.9489C15.5289 18.9993 14.7366 19.0001 13.6 19.0001H10.4C9.26339 19.0001 8.47108 18.9993 7.85424 18.9489C7.24907 18.8995 6.90138 18.8073 6.63803 18.6731C6.07354 18.3855 5.6146 17.9266 5.32698 17.3621C5.28343 17.2766 5.2443 17.1822 5.20962 17.0731L6.40185 16.3359C6.86686 16.0483 6.92294 16.0262 6.96177 16.0163C7.02699 15.9995 7.09492 15.996 7.1615 16.0062C7.20113 16.0122 7.25915 16.0285 7.75075 16.2678L8.27911 16.5249L8.36887 16.5687C8.74329 16.7519 9.11962 16.936 9.5277 16.9897C9.88366 17.0366 10.2455 17.0063 10.5887 16.9009C10.9822 16.7799 11.3226 16.5358 11.6614 16.2929L11.7426 16.2348L14.2482 14.4458C14.2894 14.4164 14.3278 14.3891 14.3637 14.3636L12.9298 12.9297L10.5804 14.6071C10.1013 14.9492 10.0419 14.9766 10.0012 14.9891C9.93257 15.0102 9.86019 15.0163 9.789 15.0069C9.74682 15.0013 9.68368 14.9842 9.15429 14.7266L8.62594 14.4694L8.54278 14.4288C8.19415 14.2583 7.84351 14.0869 7.46216 14.0289C7.12928 13.9783 6.78961 13.9954 6.46352 14.0793C6.08995 14.1754 5.75836 14.3813 5.42867 14.586L5.42866 14.586L5.35002 14.6348L5.00389 14.8488C5.00013 14.4838 5 14.0716 5 13.6001V10.4001C5 9.26349 5.00078 8.47118 5.05118 7.85433C5.10062 7.24917 5.19279 6.90148 5.32698 6.63812C5.47081 6.35584 5.65748 6.09996 5.87876 5.87869L4.46455 4.46448ZM7.58587 7.5858C7.22389 7.94773 7 8.44777 7 9.00009C7 10.1047 7.89543 11.0001 9 11.0001C9.55233 11.0001 10.0524 10.7762 10.4143 10.4142L7.58587 7.5858Z" fill="#12131A"/>
<path fill-rule="evenodd" clip-rule="evenodd" d="M16.1458 5.05118C15.5289 5.00078 14.7366 5 13.6 5H10C9.44772 5 9 4.55229 9 4C9 3.44772 9.44772 3 10 3L13.6428 3C14.7266 2.99999 15.6007 2.99998 16.3086 3.05782C17.0375 3.11737 17.6777 3.24318 18.27 3.54497C19.2108 4.02433 19.9757 4.78924 20.455 5.73005C20.7568 6.32234 20.8826 6.96253 20.9422 7.69138C21 8.39926 21 9.27342 21 10.3572V14C21 14.5523 20.5523 15 20 15C19.4477 15 19 14.5523 19 14V10.4C19 9.26339 18.9992 8.47108 18.9488 7.85424C18.8994 7.24907 18.8072 6.90138 18.673 6.63803C18.3854 6.07354 17.9265 5.6146 17.362 5.32698C17.0986 5.19279 16.7509 5.10062 16.1458 5.05118Z" fill="#12131A"/>
<path fill-rule="evenodd" clip-rule="evenodd" d="M2.29289 2.29289C2.68342 1.90237 3.31658 1.90237 3.70711 2.29289L21.7071 20.2929C22.0976 20.6834 22.0976 21.3166 21.7071 21.7071C21.3166 22.0976 20.6834 22.0976 20.2929 21.7071L2.29289 3.70711C1.90237 3.31658 1.90237 2.68342 2.29289 2.29289Z" fill="#12131A"/>
</svg>
