<svg width="24" height="24" viewBox="0 0 24 24" fill="none" xmlns="http://www.w3.org/2000/svg">
<path d="M4 15H15L13 17H5L4 15Z" fill="#12131A"/>
<path fill-rule="evenodd" clip-rule="evenodd" d="M11.5372 4.12259C10.0422 2.62743 7.61812 2.62738 6.12299 4.12248C4.62792 5.61752 4.62786 8.04147 6.12285 9.53659L6.58606 9.99984L3.87721 12.7087C2.70564 13.8802 2.70564 15.7797 3.87721 16.9513L7.04878 20.1229C8.22035 21.2945 10.1198 21.2945 11.2914 20.1229L16.0043 15.41H17.9959C19.7777 15.41 20.67 13.2557 19.4101 11.9958L13.4142 5.9999L13.4143 5.9998L12.7073 5.29269L11.5372 4.12259ZM7.53719 5.53671C8.25125 4.82266 9.40896 4.82269 10.123 5.53676L10.586 5.99976L8.00018 8.58553L7.53712 8.12244C6.82313 7.40838 6.82316 6.25073 7.53719 5.53671ZM5.29143 14.1229L12.0001 7.41421L17.9959 13.41H16.0043C15.4739 13.41 14.9652 13.6207 14.5901 13.9958L9.8772 18.7087C9.48668 19.0992 8.85351 19.0992 8.46299 18.7087L5.29143 15.5371C4.9009 15.1466 4.9009 14.5134 5.29143 14.1229Z" fill="#12131A"/>
<path d="M21 19.4C21 20.2837 20.3284 21 19.5 21C18.6716 21 18 20.2837 18 19.4C18 18.5584 18.7378 17.6283 19.1785 17.1479C19.3543 16.9563 19.6457 16.9563 19.8215 17.1479C20.2622 17.6283 21 18.5584 21 19.4Z" fill="#12131A"/>
</svg>
