<svg width="24" height="24" viewBox="0 0 24 24" fill="none" xmlns="http://www.w3.org/2000/svg">
<path fill-rule="evenodd" clip-rule="evenodd" d="M5.18567 3.01266C3.9418 2.89958 2.89973 3.94165 3.01281 5.18552L3.69386 12.6771C3.91828 15.1456 5.63755 17.2221 8.0209 17.903L11.476 18.8902L12.7087 20.1229C13.8803 21.2945 15.7798 21.2945 16.9514 20.1229L20.1229 16.9513C21.2945 15.7798 21.2945 13.8803 20.1229 12.7087L18.8904 11.4762L17.9032 8.02075C17.2222 5.6374 15.1458 3.91812 12.6772 3.69371L5.18567 3.01266ZM18 13.4142L13.4142 18L14.1229 18.7087C14.5135 19.0992 15.1466 19.0992 15.5371 18.7087L18.7087 15.5371C19.0992 15.1466 19.0992 14.5134 18.7087 14.1229L18 13.4142ZM5.0046 5.00445L12.4962 5.6855C14.1419 5.83511 15.5262 6.98129 15.9801 8.57019L16.8769 11.7089L11.709 16.8767L8.57034 15.98C6.98144 15.526 5.83526 14.1417 5.68565 12.496L5.0046 5.00445Z" fill="#12131A"/>
<path d="M3.07153 4.48567L9.06789 10.482C9.02371 10.6473 9.00015 10.8209 9.00015 11.0001C9.00015 12.1046 9.89558 13.0001 11.0001 13.0001C12.1047 13.0001 13.0001 12.1046 13.0001 11.0001C13.0001 9.8955 12.1047 9.00007 11.0001 9.00007C10.821 9.00007 10.6473 9.02363 10.4821 9.06781L4.48589 3.07159C3.79882 3.25558 3.25566 3.79866 3.07153 4.48567Z" fill="#12131A"/>
</svg>
