<svg width="24" height="24" viewBox="0 0 24 24" fill="none" xmlns="http://www.w3.org/2000/svg">
<path fill-rule="evenodd" clip-rule="evenodd" d="M12.0002 6.58578L17.4144 12L12.2684 17.146C11.8433 17.5711 11.3724 17.9479 10.8643 18.2693L7.21799 20.5764C6.13105 21.2642 4.71258 21.1066 3.80307 20.1971C2.89355 19.2876 2.73598 17.8691 3.42372 16.7822L5.73084 13.1359C6.0523 12.6278 6.42904 12.1569 6.85416 11.7318L12.0002 6.58578ZM12.0002 9.41421L8.26838 13.146C7.94766 13.4667 7.66345 13.822 7.42094 14.2052L5.11382 17.8516C4.92626 18.148 4.96923 18.5348 5.21728 18.7829C5.46533 19.0309 5.85218 19.0739 6.14862 18.8863L9.79493 16.5792C10.1782 16.3367 10.5335 16.0525 10.8542 15.7318L14.586 12L12.0002 9.41421Z" fill="#12131A"/>
<path fill-rule="evenodd" clip-rule="evenodd" d="M19.8771 4.12294C18.382 2.62786 15.958 2.62789 14.4629 4.12299L12.0001 6.58587L11.7071 6.2929C11.3166 5.90237 10.6834 5.90237 10.2929 6.2929C9.90237 6.68342 9.90237 7.31659 10.2929 7.70711L11.2929 8.70729L15.2929 12.7073L16.2929 13.7071C16.6834 14.0976 17.3166 14.0976 17.7071 13.7071C18.0976 13.3166 18.0976 12.6834 17.7071 12.2929L17.4143 12.0001L19.8772 9.5371C21.3722 8.042 21.3722 5.618 19.8771 4.12294ZM16.0001 10.5859L18.4629 8.12292C19.177 7.40887 19.177 6.25119 18.4629 5.53716C17.7489 4.82313 16.5912 4.82314 15.8771 5.53719L13.4143 8.00009L16.0001 10.5859Z" fill="#12131A"/>
</svg>
