<svg width="24" height="24" viewBox="0 0 24 24" fill="none" xmlns="http://www.w3.org/2000/svg">
<path fill-rule="evenodd" clip-rule="evenodd" d="M12 8.02163C11.997 8.16514 11.9629 8.31026 11.8944 8.44719L7.8944 16.4472C7.64741 16.9412 7.04674 17.1414 6.55276 16.8944C6.05878 16.6474 5.85856 16.0467 6.10555 15.5528L10.1055 7.55276C10.3525 7.05878 10.9532 6.85856 11.4472 7.10555C11.791 7.27743 11.9925 7.62061 12 7.97991C12.0075 7.62061 12.209 7.27743 12.5528 7.10555C13.0467 6.85856 13.6474 7.05878 13.8944 7.55276L17.8944 15.5528C18.1414 16.0467 17.9412 16.6474 17.4472 16.8944C16.9532 17.1414 16.3525 16.9412 16.1055 16.4472L12.1055 8.44719C12.0371 8.31026 12.003 8.16514 12 8.02163ZM6.99997 18C6.99997 17.4477 7.44769 17 7.99997 17H16C16.5523 17 17 17.4477 17 18C17 18.5523 16.5523 19 16 19H7.99997C7.44769 19 6.99997 18.5523 6.99997 18Z" fill="#12131A"/>
<path fill-rule="evenodd" clip-rule="evenodd" d="M11 6C11 6.55228 11.4477 7 12 7C12.5523 7 13 6.55228 13 6C13 5.44772 12.5523 5 12 5C11.4477 5 11 5.44772 11 6ZM12 3C10.3431 3 9 4.34315 9 6C9 7.65685 10.3431 9 12 9C13.6569 9 15 7.65685 15 6C15 4.34315 13.6569 3 12 3ZM5 18C5 18.5523 5.44772 19 6 19C6.55228 19 7 18.5523 7 18C7 17.4477 6.55228 17 6 17C5.44772 17 5 17.4477 5 18ZM6 15C4.34315 15 3 16.3431 3 18C3 19.6569 4.34315 21 6 21C7.65685 21 9 19.6569 9 18C9 16.3431 7.65685 15 6 15ZM18 19C17.4477 19 17 18.5523 17 18C17 17.4477 17.4477 17 18 17C18.5523 17 19 17.4477 19 18C19 18.5523 18.5523 19 18 19ZM15 18C15 16.3431 16.3431 15 18 15C19.6569 15 21 16.3431 21 18C21 19.6569 19.6569 21 18 21C16.3431 21 15 19.6569 15 18Z" fill="#12131A"/>
</svg>
