<svg width="24" height="24" viewBox="0 0 24 24" fill="none" xmlns="http://www.w3.org/2000/svg">
<path fill-rule="evenodd" clip-rule="evenodd" d="M9.0001 6C8.44782 6 8.0001 6.44772 8.0001 7C8.0001 7.55228 8.44782 8 9.0001 8H15.0001C15.5524 8 16.0001 7.55228 16.0001 7C16.0001 6.44772 15.5524 6 15.0001 6H9.0001ZM7.0001 16C6.44782 16 6.0001 16.4477 6.0001 17C6.0001 17.5523 6.44782 18 7.0001 18H17.0001C17.5524 18 18.0001 17.5523 18.0001 17C18.0001 16.4477 17.5524 16 17.0001 16H7.0001ZM6.79621 8.01942C7.33777 8.12773 7.68899 8.65456 7.58068 9.19612L6.38068 15.1961C6.27236 15.7377 5.74554 16.0889 5.20398 15.9806C4.66242 15.8723 4.3112 15.3454 4.41951 14.8039L5.61951 8.80388C5.72783 8.26232 6.25465 7.91111 6.79621 8.01942ZM16.4195 9.19612C16.3112 8.65456 16.6624 8.12773 17.204 8.01942C17.7456 7.91111 18.2724 8.26232 18.3807 8.80388L19.5807 14.8039C19.689 15.3454 19.3378 15.8723 18.7962 15.9806C18.2547 16.0889 17.7278 15.7377 17.6195 15.1961L16.4195 9.19612Z" fill="#12131A"/>
<path fill-rule="evenodd" clip-rule="evenodd" d="M18 7C18 7.55228 17.5523 8 17 8C16.4477 8 16 7.55228 16 7C16 6.44772 16.4477 6 17 6C17.5523 6 18 6.44772 18 7ZM20 7C20 8.65685 18.6569 10 17 10C15.3431 10 14 8.65685 14 7C14 5.34315 15.3431 4 17 4C18.6569 4 20 5.34315 20 7ZM20 17C20 17.5523 19.5523 18 19 18C18.4477 18 18 17.5523 18 17C18 16.4477 18.4477 16 19 16C19.5523 16 20 16.4477 20 17ZM22 17C22 18.6569 20.6569 20 19 20C17.3431 20 16 18.6569 16 17C16 15.3431 17.3431 14 19 14C20.6569 14 22 15.3431 22 17ZM5 18C5.55228 18 6 17.5523 6 17C6 16.4477 5.55228 16 5 16C4.44772 16 4 16.4477 4 17C4 17.5523 4.44772 18 5 18ZM5 20C6.65685 20 8 18.6569 8 17C8 15.3431 6.65685 14 5 14C3.34315 14 2 15.3431 2 17C2 18.6569 3.34315 20 5 20ZM8 7C8 7.55228 7.55228 8 7 8C6.44772 8 6 7.55228 6 7C6 6.44772 6.44772 6 7 6C7.55228 6 8 6.44772 8 7ZM10 7C10 8.65685 8.65685 10 7 10C5.34315 10 4 8.65685 4 7C4 5.34315 5.34315 4 7 4C8.65685 4 10 5.34315 10 7Z" fill="#12131A"/>
</svg>
