<svg width="24" height="24" viewBox="0 0 24 24" fill="none" xmlns="http://www.w3.org/2000/svg">
<path fill-rule="evenodd" clip-rule="evenodd" d="M10.9584 5.00462C11.1159 5.53396 10.8145 6.09079 10.2852 6.24833C8.35108 6.82394 6.82388 8.35114 6.24827 10.2852C6.09073 10.8146 5.5339 11.116 5.00456 10.9584C4.47522 10.8009 4.17382 10.2441 4.33136 9.71475C5.09964 7.13329 7.13323 5.0997 9.71468 4.33142C10.244 4.17388 10.8008 4.47529 10.9584 5.00462ZM13.0415 5.00462C13.199 4.47529 13.7558 4.17388 14.2852 4.33142C16.8666 5.0997 18.9002 7.13329 19.6685 9.71475C19.826 10.2441 19.5246 10.8009 18.9953 10.9584C18.466 11.116 17.9091 10.8146 17.7516 10.2852C17.176 8.35114 15.6488 6.82394 13.7147 6.24833C13.1853 6.09079 12.8839 5.53396 13.0415 5.00462ZM5.00456 13.0415C5.5339 12.884 6.09073 13.1854 6.24827 13.7147C6.82388 15.6488 8.35108 17.176 10.2852 17.7517C10.8145 17.9092 11.1159 18.466 10.9584 18.9954C10.8008 19.5247 10.244 19.8261 9.71468 19.6686C7.13323 18.9003 5.09964 16.8667 4.33136 14.2852C4.17382 13.7559 4.47522 13.1991 5.00456 13.0415ZM18.9953 13.0415C19.5246 13.1991 19.826 13.7559 19.6685 14.2852C18.9002 16.8667 16.8666 18.9003 14.2852 19.6686C13.7558 19.8261 13.199 19.5247 13.0415 18.9954C12.8839 18.466 13.1853 17.9092 13.7147 17.7517C15.6488 17.176 17.176 15.6488 17.7516 13.7147C17.9091 13.1854 18.466 12.884 18.9953 13.0415Z" fill="#12131A"/>
<path fill-rule="evenodd" clip-rule="evenodd" d="M12 4C11.4477 4 11 4.44772 11 5C11 5.55228 11.4477 6 12 6C12.5523 6 13 5.55228 13 5C13 4.44772 12.5523 4 12 4ZM9 5C9 3.34315 10.3431 2 12 2C13.6569 2 15 3.34315 15 5C15 6.65685 13.6569 8 12 8C10.3431 8 9 6.65685 9 5ZM5 11C4.44772 11 4 11.4477 4 12C4 12.5523 4.44772 13 5 13C5.55228 13 6 12.5523 6 12C6 11.4477 5.55228 11 5 11ZM2 12C2 10.3431 3.34315 9 5 9C6.65685 9 8 10.3431 8 12C8 13.6569 6.65685 15 5 15C3.34315 15 2 13.6569 2 12ZM16 12C16 10.3431 17.3431 9 19 9C20.6569 9 22 10.3431 22 12C22 13.6569 20.6569 15 19 15C17.3431 15 16 13.6569 16 12ZM19 11C18.4477 11 18 11.4477 18 12C18 12.5523 18.4477 13 19 13C19.5523 13 20 12.5523 20 12C20 11.4477 19.5523 11 19 11ZM12 18C11.4477 18 11 18.4477 11 19C11 19.5523 11.4477 20 12 20C12.5523 20 13 19.5523 13 19C13 18.4477 12.5523 18 12 18ZM9 19C9 17.3431 10.3431 16 12 16C13.6569 16 15 17.3431 15 19C15 20.6569 13.6569 22 12 22C10.3431 22 9 20.6569 9 19Z" fill="#12131A"/>
</svg>
