<svg width="24" height="24" viewBox="0 0 24 24" fill="none" xmlns="http://www.w3.org/2000/svg">
<path fill-rule="evenodd" clip-rule="evenodd" d="M8.46187 10.599C9.7664 8.94801 12.2192 8.80472 13.7071 10.2926C15.195 11.7805 15.0517 14.2333 13.4007 15.5379L7.19962 20.4376C6.16894 21.252 4.69177 21.1657 3.76292 20.2368C2.83406 19.308 2.74777 17.8308 3.56216 16.8001L8.46187 10.599ZM12.2929 11.7068C11.6513 11.0652 10.5937 11.127 10.0311 11.839L5.13142 18.0401C4.94597 18.2748 4.96562 18.6111 5.17713 18.8226C5.38864 19.0341 5.725 19.0538 5.9597 18.8683L12.1608 13.9686C12.8727 13.4061 12.9345 12.3484 12.2929 11.7068Z" fill="#12131A"/>
<path fill-rule="evenodd" clip-rule="evenodd" d="M17.7929 6.20668C16.464 4.87783 14.702 4.88315 13.4632 5.12108C13.2454 5.16291 13 5.391 13 5.82736L13 9.17115C13 9.43636 13.1054 9.69072 13.2929 9.87825L14.1213 10.7067C14.3089 10.8942 14.5632 10.9996 14.8284 10.9996H18.1722C18.6086 10.9996 18.8367 10.7542 18.8785 10.5364C19.1164 9.29753 19.1217 7.53553 17.7929 6.20668ZM13.086 3.15698C14.5672 2.8725 17.1764 2.76177 19.2071 4.79247C21.2378 6.82316 21.1271 9.43236 20.8426 10.9136C20.5809 12.2761 19.3451 12.9996 18.1722 12.9996H14.8284C14.0328 12.9996 13.2697 12.6835 12.7071 12.1209L11.8787 11.2925C11.3161 10.7299 11 9.96679 11 9.17115L11 5.82736C11 4.6545 11.7234 3.41865 13.086 3.15698Z" fill="#12131A"/>
</svg>
