<svg width="24" height="24" viewBox="0 0 24 24" fill="none" xmlns="http://www.w3.org/2000/svg">
<path fill-rule="evenodd" clip-rule="evenodd" d="M5.99989 12.0001C5.53247 11.4392 5.26899 10.8099 5.17978 10.1754C4.89004 8.11479 6.43876 6.00009 8.81013 6.00009H10.5144C11.3348 6.00009 11.9999 5.33503 11.9999 4.51463V3.46277C11.9999 3.14933 12.3046 2.9263 12.6034 3.02102L15.126 3.82079C18.5669 4.91171 20.0022 8.99658 17.9999 12.0001H5.99989ZM16.7612 10.0001H7.18344C6.9799 9.03366 7.69398 8.00009 8.81013 8.00009H10.5144C12.0915 8.00009 13.4239 6.95272 13.854 5.51564L14.5215 5.72727C16.3679 6.31265 17.2995 8.26357 16.7612 10.0001Z" fill="#12131A"/>
<path fill-rule="evenodd" clip-rule="evenodd" d="M3 13C3 11.3431 4.34315 10 6 10H18C19.6569 10 21 11.3431 21 13V15C21 18.3137 18.3137 21 15 21H9C5.68629 21 3 18.3137 3 15V13ZM6 12C5.44772 12 5 12.4477 5 13V15C5 17.2091 6.79086 19 9 19H15C17.2091 19 19 17.2091 19 15V13C19 12.4477 18.5523 12 18 12H6Z" fill="#12131A"/>
</svg>
