<svg width="24" height="24" viewBox="0 0 24 24" fill="none" xmlns="http://www.w3.org/2000/svg">
<path d="M21 19.0004C21 20.1049 20.1046 21.0004 19 21.0004C17.8954 21.0004 17 20.1049 17 19.0004C17 17.8713 18.1332 16.6576 18.6936 16.1265C18.8674 15.9618 19.1326 15.9618 19.3064 16.1265C19.8668 16.6576 21 17.8713 21 19.0004Z" fill="#12131A"/>
<path fill-rule="evenodd" clip-rule="evenodd" d="M10.5 9.08594L14.9142 13.5002L11.0115 17.4029C10.7751 17.6393 10.522 17.8585 10.2542 18.0588L7.02734 20.4722C4.71536 22.2013 1.79889 19.2848 3.52801 16.9728L5.9414 13.7459C6.14167 13.4782 6.36086 13.2251 6.5973 12.9887L10.5 9.08594ZM10.5 11.9144L8.01152 14.4029C7.84263 14.5718 7.68606 14.7525 7.54302 14.9438L5.12963 18.1707C5.02067 18.3164 5.00763 18.4311 5.01745 18.5156C5.02898 18.6148 5.08056 18.7278 5.17648 18.8237C5.2724 18.9196 5.38536 18.9712 5.48462 18.9827C5.56912 18.9925 5.68381 18.9795 5.82949 18.8705L9.05638 16.4572C9.24765 16.3141 9.42842 16.1575 9.5973 15.9887L12.0858 13.5002L10.5 11.9144Z" fill="#12131A"/>
<path fill-rule="evenodd" clip-rule="evenodd" d="M20.0875 3.91263C18.8684 2.6932 16.8915 2.69319 15.6724 3.91259L14.3474 5.23798C13.2541 4.772 11.9404 4.98495 11.0485 5.87681L9.87695 7.04843C8.70539 8.22001 8.70541 10.1195 9.87699 11.2911L12.7086 14.1227C13.8802 15.2942 15.7797 15.2942 16.9513 14.1227L18.1228 12.9511C19.0147 12.0592 19.2276 10.7455 18.7616 9.65226L20.0871 8.32676C21.306 7.10787 21.3062 5.13169 20.0875 3.91263ZM16.7086 10.1226L13.877 7.29101C13.4865 6.90048 12.8533 6.90048 12.4628 7.29101L11.2912 8.46263C10.9007 8.85316 10.9007 9.48632 11.2912 9.87684L14.1228 12.7084C14.5134 13.099 15.1465 13.099 15.537 12.7084L16.7086 11.5369C17.0991 11.1463 17.0991 10.5132 16.7086 10.1226ZM17.4999 8.08554L18.6729 6.91255C19.1109 6.47462 19.1109 5.76462 18.673 5.32664C18.2351 4.88852 17.5248 4.88852 17.0868 5.32662L15.9141 6.49966L17.4999 8.08554Z" fill="#12131A"/>
</svg>
