<svg width="24" height="24" viewBox="0 0 24 24" fill="none" xmlns="http://www.w3.org/2000/svg">
<path d="M3.93311 13.6826L4.71183 18.355C4.96623 19.8814 6.28685 21.0001 7.83429 21.0001C9.58256 21.0001 10.9998 19.5828 10.9998 17.8346V14.5277L8.99981 14.8309V17.8346C8.99981 18.4783 8.47799 19.0001 7.83429 19.0001C7.26453 19.0001 6.77829 18.5882 6.68462 18.0262L6.15204 14.8307C5.3258 14.6218 4.56836 14.2238 3.93311 13.6826Z" fill="#12131A"/>
<path fill-rule="evenodd" clip-rule="evenodd" d="M8.32641 4.05983C4.99802 3.55335 2 6.12968 2 9.49638C2 12.8619 4.99602 15.4379 8.3235 14.9334L19.4497 13.2464C20.9162 13.024 22 11.7635 22 10.2803V8.71857C22 7.236 20.917 5.97575 19.4513 5.75271L8.32641 4.05983ZM4 9.49638C4 7.35413 5.90766 5.7148 8.02553 6.03707L16 7.25055V11.7466L8.02368 12.956C5.90639 13.277 4 11.6379 4 9.49638ZM18 11.4433L19.1499 11.269C19.6387 11.1949 20 10.7747 20 10.2803V8.71857C20 8.22438 19.639 7.8043 19.1504 7.72995L18 7.55489V11.4433Z" fill="#12131A"/>
</svg>
