<svg width="24" height="24" viewBox="0 0 24 24" fill="none" xmlns="http://www.w3.org/2000/svg">
<path fill-rule="evenodd" clip-rule="evenodd" d="M18.4999 5.08594L19.6402 6.22625C21.4483 8.03437 21.4483 10.9659 19.6402 12.7741L12.7738 19.6405C10.9657 21.4486 8.03413 21.4486 6.226 19.6405L5.08569 18.5002L18.4999 5.08594ZM7.93415 18.4801C8.9638 19.2449 10.4256 19.1603 11.3596 18.2262L18.226 11.3598C19.16 10.4258 19.2446 8.96405 18.4799 7.93439L7.93415 18.4801Z" fill="#12131A"/>
<path d="M16.7071 3.29289C16.3166 2.90237 15.6834 2.90237 15.2929 3.29289C14.9024 3.68342 14.9024 4.31658 15.2929 4.70711L17.0858 6.50003L18.5 5.08581L16.7071 3.29289Z" fill="#12131A"/>
<path d="M6.50003 17.0858L5.08581 18.5L3.29289 16.7071C2.90237 16.3166 2.90237 15.6834 3.29289 15.2929C3.68342 14.9024 4.31658 14.9024 4.70711 15.2929L6.50003 17.0858Z" fill="#12131A"/>
<path d="M9.50003 14.0858L8.08582 15.5L6.79289 14.2071C6.40237 13.8166 6.40237 13.1834 6.79289 12.7929C7.18342 12.4024 7.81658 12.4024 8.20711 12.7929L9.50003 14.0858Z" fill="#12131A"/>
<path d="M12.5 11.0858L11.0858 12.5L9.79289 11.2071C9.40237 10.8166 9.40237 10.1834 9.79289 9.79289C10.1834 9.40237 10.8166 9.40237 11.2071 9.79289L12.5 11.0858Z" fill="#12131A"/>
<path d="M15.5 8.08582L14.0858 9.50003L12.7929 8.20711C12.4024 7.81658 12.4024 7.18342 12.7929 6.79289C13.1834 6.40237 13.8166 6.40237 14.2071 6.79289L15.5 8.08582Z" fill="#12131A"/>
</svg>
