<svg width="24" height="24" viewBox="0 0 24 24" fill="none" xmlns="http://www.w3.org/2000/svg">
<path fill-rule="evenodd" clip-rule="evenodd" d="M17 21C17 21.5523 16.5523 22 16 22C15.4477 22 15 21.5523 15 21C14.4477 21 14 20.5523 14 20C14 19.4477 14.4477 19 15 19L15 18C14.4477 18 14 17.5523 14 17C14 16.4477 14.4477 16 15 16L15 10C15 9.44772 15.4477 9 16 9C16.5523 9 17 9.44772 17 10L17 16C17.5523 16 18 16.4477 18 17C18 17.5523 17.5523 18 17 18L17 19C17.5523 19 18 19.4477 18 20C18 20.5523 17.5523 21 17 21Z" fill="#12131A"/>
<path fill-rule="evenodd" clip-rule="evenodd" d="M15.0001 9H16.9998C17.6342 9 18.1082 8.41688 17.9787 7.79584L17.353 4.79584C17.2563 4.33222 16.8477 4 16.3741 4H15.6259C15.1523 4 14.7436 4.3322 14.6469 4.79581L14.0212 7.79581C13.8916 8.41686 14.3657 9 15.0001 9ZM16.9998 11H15.0001C13.0969 11 11.6747 9.25057 12.0633 7.38743L12.6891 4.38743C12.9792 2.99661 14.2051 2 15.6259 2L16.3741 2C17.7949 2 19.0208 2.99665 19.3109 4.38751L19.9366 7.38751C20.3251 9.25062 18.903 11 16.9998 11Z" fill="#12131A"/>
<path fill-rule="evenodd" clip-rule="evenodd" d="M7.00017 8C6.44789 8 6.00017 8.44772 6.00017 9V10.1702C4.71088 10.6254 3.84081 11.9346 4.02411 13.378L4.78609 19.378C4.97642 20.8766 6.25146 22 7.76219 22H8.23806C9.74878 22 11.0238 20.8767 11.2142 19.378L11.9762 13.378C12.1595 11.9346 11.2895 10.6254 10.0002 10.1702V9C10.0002 8.44772 9.55246 8 9.00017 8H7.00017ZM6.00818 13.126C5.9323 12.5285 6.39792 12 7.00021 12H9.0001C9.60239 12 10.068 12.5285 9.99213 13.126L9.23009 19.126C9.16665 19.6256 8.74163 20 8.23806 20H7.76219C7.25861 20 6.8336 19.6255 6.77016 19.126L6.00818 13.126Z" fill="#12131A"/>
</svg>
