<svg width="24" height="24" viewBox="0 0 24 24" fill="none" xmlns="http://www.w3.org/2000/svg">
<path fill-rule="evenodd" clip-rule="evenodd" d="M4.7073 18.8098C2.58934 14.8137 5.48605 10 10.0087 10H13.991C18.5137 10 21.4104 14.8137 19.2925 18.8098L18.7289 19.8732C18.0353 21.1817 16.6756 22 15.1946 22H8.80519C7.32422 22 5.96445 21.1817 5.27091 19.8732L4.7073 18.8098ZM10.0087 12C6.99361 12 5.06247 15.2091 6.47444 17.8732L7.03805 18.9366C7.38482 19.5909 8.06471 20 8.80519 20H15.1946C15.9351 20 16.615 19.5909 16.9617 18.9366L17.5253 17.8732C18.9373 15.2091 17.0062 12 13.991 12H10.0087Z" fill="#12131A"/>
<path fill-rule="evenodd" clip-rule="evenodd" d="M8.78863 4.6279C8.97629 3.12661 10.2525 2 11.7655 2H12.2343C13.7473 2 15.0235 3.12661 15.2112 4.6279L15.9922 10.876C16.0668 11.4728 15.6014 12 14.9999 12H8.9999C8.39841 12 7.93302 11.4728 8.00763 10.876L8.78863 4.6279ZM11.7655 4C11.2611 4 10.8357 4.37554 10.7732 4.87597L10.1327 10H13.8671L13.2266 4.87597C13.1641 4.37554 12.7387 4 12.2343 4H11.7655Z" fill="#12131A"/>
</svg>
