<svg width="24" height="24" viewBox="0 0 24 24" fill="none" xmlns="http://www.w3.org/2000/svg">
<path fill-rule="evenodd" clip-rule="evenodd" d="M7 16H17V19C17 20.6569 15.6569 22 14 22H10C8.34315 22 7 20.6569 7 19V16ZM9 18V19C9 19.5523 9.44772 20 10 20H14C14.5523 20 15 19.5523 15 19V18H9Z" fill="#12131A"/>
<path fill-rule="evenodd" clip-rule="evenodd" d="M7.00527 2C5.1492 2 3.73847 3.66844 4.04701 5.4987L5.7328 15.4987C5.97623 16.9427 7.22665 18 8.69106 18H15.3101C16.7737 18 18.0237 16.9438 18.268 15.5007L19.9609 5.50073C20.2708 3.66987 18.8599 2 17.003 2H7.00527ZM6.01919 5.16623C5.91634 4.55615 6.38658 4 7.00527 4H17.003C17.6219 4 18.0923 4.55662 17.9889 5.16691L17.8479 6H6.15974L6.01919 5.16623ZM6.4969 8L7.70497 15.1662C7.78612 15.6476 8.20292 16 8.69106 16H15.3101C15.798 16 16.2147 15.6479 16.2961 15.1669L17.5093 8H6.4969Z" fill="#12131A"/>
</svg>
