<svg width="24" height="24" viewBox="0 0 24 24" fill="none" xmlns="http://www.w3.org/2000/svg">
<path fill-rule="evenodd" clip-rule="evenodd" d="M4 3C4.55228 3 5 3.44772 5 4V17C5 18.1046 5.89543 19 7 19H20C20.5523 19 21 19.4477 21 20C21 20.5523 20.5523 21 20 21H7C4.79086 21 3 19.2091 3 17V4C3 3.44772 3.44772 3 4 3Z" fill="#12131A"/>
<path fill-rule="evenodd" clip-rule="evenodd" d="M20.3162 16.9487C20.8402 16.7741 21.1233 16.2077 20.9487 15.6838L18.972 9.7538C18.2668 7.6381 15.5816 7.00422 14.0046 8.58117L12.5811 10.0047C12.0555 10.5303 11.1604 10.319 10.9253 9.6138L8.94868 3.6838C8.77403 3.15986 8.20771 2.8767 7.68377 3.05134C7.15983 3.22599 6.87667 3.79231 7.05131 4.31626L9.02798 10.2463C9.73321 12.362 12.4184 12.9958 13.9953 11.4189L15.4189 9.99538C15.9445 9.46973 16.8396 9.68103 17.0746 10.3863L19.0513 16.3163C19.226 16.8402 19.7923 17.1234 20.3162 16.9487Z" fill="#12131A"/>
</svg>
