<svg width="24" height="24" viewBox="0 0 24 24" fill="none" xmlns="http://www.w3.org/2000/svg">
<path fill-rule="evenodd" clip-rule="evenodd" d="M7.1594 9.08264L8.62943 12.0227C7.93028 12.1088 7.3056 12.4355 6.84073 12.9174L5.3707 9.97736C6.06985 9.89122 6.69453 9.56453 7.1594 9.08264ZM10.2935 12.2924C10.9112 12.588 11.4121 13.0889 11.7077 13.7066L13.7066 11.7077C13.0889 11.412 12.5881 10.9112 12.2924 10.2934L10.2935 12.2924ZM17.1594 11.0826L18.6294 14.0227C17.9303 14.1088 17.3056 14.4355 16.8407 14.9174L15.3707 11.9774C16.0698 11.8912 16.6945 11.5645 17.1594 11.0826Z" fill="#12131A"/>
<path fill-rule="evenodd" clip-rule="evenodd" d="M4 7C4 7.55228 4.44772 8 5 8C5.55228 8 6 7.55228 6 7C6 6.44772 5.55228 6 5 6C4.44772 6 4 6.44772 4 7ZM2 7C2 8.65685 3.34315 10 5 10C6.65685 10 8 8.65685 8 7C8 5.34315 6.65685 4 5 4C3.34315 4 2 5.34315 2 7ZM14 9C14 9.55228 14.4477 10 15 10C15.5523 10 16 9.55228 16 9C16 8.44772 15.5523 8 15 8C14.4477 8 14 8.44772 14 9ZM12 9C12 10.6569 13.3431 12 15 12C16.6569 12 18 10.6569 18 9C18 7.34315 16.6569 6 15 6C13.3431 6 12 7.34315 12 9ZM18 17C18 17.5523 18.4477 18 19 18C19.5523 18 20 17.5523 20 17C20 16.4477 19.5523 16 19 16C18.4477 16 18 16.4477 18 17ZM16 17C16 18.6569 17.3431 20 19 20C20.6569 20 22 18.6569 22 17C22 15.3431 20.6569 14 19 14C17.3431 14 16 15.3431 16 17ZM9 16C8.44772 16 8 15.5523 8 15C8 14.4477 8.44772 14 9 14C9.55228 14 10 14.4477 10 15C10 15.5523 9.55228 16 9 16ZM9 18C7.34315 18 6 16.6569 6 15C6 13.3431 7.34315 12 9 12C10.6569 12 12 13.3431 12 15C12 16.6569 10.6569 18 9 18Z" fill="#12131A"/>
</svg>
