<svg width="24" height="24" viewBox="0 0 24 24" fill="none" xmlns="http://www.w3.org/2000/svg">
<path fill-rule="evenodd" clip-rule="evenodd" d="M2.60896 17.078C2.20693 16.1074 2 15.0671 2 14.0165C2 12.9659 2.20693 11.9256 2.60896 10.955C3.011 9.98444 3.60028 9.10252 4.34315 8.35965C5.08601 7.61679 5.96793 7.02751 6.93853 6.62547C7.73289 6.29644 8.57391 6.09809 9.42905 6.03691C10.3309 5.97238 11 6.70874 11 7.51651L11 20.5165C11 21.3243 10.3309 22.0606 9.42905 21.9961C8.57391 21.9349 7.73289 21.7366 6.93853 21.4075C5.96793 21.0055 5.08602 20.4162 4.34315 19.6734C3.60028 18.9305 3.011 18.0486 2.60896 17.078ZM4 14.0165C4 14.8044 4.15519 15.5847 4.45672 16.3126C4.75825 17.0406 5.20021 17.702 5.75736 18.2591C6.31451 18.8163 6.97595 19.2583 7.7039 19.5598C8.12154 19.7328 8.55637 19.8576 9 19.9326L9 8.10043C8.55637 8.17542 8.12153 8.30024 7.7039 8.47323C6.97595 8.77476 6.31451 9.21672 5.75736 9.77387C5.20021 10.331 4.75825 10.9925 4.45672 11.7204C4.15519 12.4484 4 13.2286 4 14.0165Z" fill="#12131A"/>
<path fill-rule="evenodd" clip-rule="evenodd" d="M21.391 6.92208C21.7931 7.89269 22 8.93297 22 9.98355C22 11.0341 21.7931 12.0744 21.391 13.045C20.989 14.0156 20.3997 14.8975 19.6569 15.6404C18.914 16.3833 18.0321 16.9725 17.0615 17.3746C16.2671 17.7036 15.4261 17.902 14.5709 17.9632C13.6691 18.0277 13 17.2913 13 16.4836L13 3.48355C13 2.67578 13.6691 1.93942 14.5709 2.00395C15.4261 2.06513 16.2671 2.26348 17.0615 2.59251C18.0321 2.99455 18.914 3.58383 19.6569 4.32669C20.3997 5.06956 20.989 5.95148 21.391 6.92208ZM20 9.98355C20 9.19562 19.8448 8.4154 19.5433 7.68745C19.2417 6.95949 18.7998 6.29806 18.2426 5.74091C17.6855 5.18376 17.0241 4.7418 16.2961 4.44027C15.8785 4.26728 15.4436 4.14246 15 4.06747V15.8996C15.4436 15.8246 15.8785 15.6998 16.2961 15.5268C17.0241 15.2253 17.6855 14.7833 18.2426 14.2262C18.7998 13.669 19.2417 13.0076 19.5433 12.2797C19.8448 11.5517 20 10.7715 20 9.98355Z" fill="#12131A"/>
</svg>
