<svg width="24" height="24" viewBox="0 0 24 24" fill="none" xmlns="http://www.w3.org/2000/svg">
<path fill-rule="evenodd" clip-rule="evenodd" d="M20.5 13C21.3078 13 22.0441 13.6691 21.9796 14.5709C21.9184 15.4261 21.7201 16.2671 21.391 17.0615C20.989 18.0321 20.3997 18.914 19.6569 19.6569C18.914 20.3997 18.0321 20.989 17.0615 21.391C16.2671 21.7201 15.4261 21.9184 14.5709 21.9796C13.6691 22.0441 13 21.3078 13 20.5L13 14.5C13 13.6716 13.6716 13 14.5 13L20.5 13ZM19.9161 15L15 15L15 19.9161C15.4436 19.8411 15.8785 19.7163 16.2961 19.5433C17.0241 19.2417 17.6855 18.7998 18.2426 18.2426C18.7998 17.6855 19.2417 17.0241 19.5433 16.2961C19.7163 15.8785 19.8411 15.4436 19.9161 15Z" fill="#12131A"/>
<path fill-rule="evenodd" clip-rule="evenodd" d="M19.9161 9.00003C19.8411 8.5564 19.7163 8.12156 19.5433 7.70393C19.2417 6.97597 18.7998 6.31454 18.2426 5.75739C17.6855 5.20024 17.0241 4.75828 16.2961 4.45675C15.8785 4.28376 15.4436 4.15894 15 4.08395L15 9.00003L19.9161 9.00003ZM21.9796 9.42908C22.0441 10.331 21.3078 11 20.5 11H14.5C13.6716 11 13 10.3285 13 9.50003L13 3.50003C13 2.69226 13.6691 1.9559 14.5709 2.02043C15.4261 2.08161 16.2671 2.27996 17.0615 2.60899C18.0321 3.01103 18.914 3.60031 19.6569 4.34317C20.3997 5.08604 20.989 5.96796 21.391 6.93856C21.7201 7.73292 21.9184 8.57394 21.9796 9.42908Z" fill="#12131A"/>
<path fill-rule="evenodd" clip-rule="evenodd" d="M4.34314 17.6569C2.84285 16.1566 2 14.1218 2 12C2 9.87831 2.84286 7.84348 4.34315 6.34318C5.7083 4.97804 7.51599 4.15724 9.42906 4.02042C10.3308 3.95593 11 4.69219 11 5.50004L11 18.5C11 19.3079 10.3308 20.0441 9.42906 19.9797C7.51598 19.8428 5.70829 19.022 4.34314 17.6569ZM4 12C4 13.5913 4.63214 15.1175 5.75736 16.2427C6.64404 17.1294 7.7797 17.7099 9 17.9162L9 6.08393C7.7797 6.2902 6.64404 6.87071 5.75736 7.7574C4.63214 8.88262 4 10.4087 4 12Z" fill="#12131A"/>
</svg>
