<svg width="24" height="24" viewBox="0 0 24 24" fill="none" xmlns="http://www.w3.org/2000/svg">
<path fill-rule="evenodd" clip-rule="evenodd" d="M13 7.50003C13 6.69224 13.6691 5.9559 14.571 6.02043C15.6886 6.10039 16.7793 6.41446 17.7712 6.94466C18.9315 7.56483 19.9209 8.46158 20.6518 9.55547C21.3827 10.6494 21.8325 11.9066 21.9615 13.2159C22.0904 14.5252 21.8945 15.846 21.3911 17.0615C20.8876 18.277 20.0921 19.3495 19.0752 20.1841C18.0582 21.0187 16.8511 21.5896 15.5607 21.8463C14.2704 22.103 12.9367 22.0375 11.6777 21.6556C10.6014 21.3291 9.60816 20.7799 8.76132 20.0462C8.07798 19.4541 8.12552 18.4603 8.69672 17.8891L13 13.5858L13 7.50003ZM15 8.08395L15 13.5858C15 14.1162 14.7893 14.625 14.4142 15L10.5238 18.8904C11.0504 19.2648 11.6359 19.5529 12.2583 19.7417C13.2025 20.0281 14.2028 20.0772 15.1706 19.8847C16.1383 19.6922 17.0436 19.2641 17.8064 18.6381C18.5691 18.0121 19.1657 17.2077 19.5433 16.2961C19.9209 15.3845 20.0678 14.3939 19.9711 13.4119C19.8744 12.43 19.537 11.487 18.9888 10.6666C18.4407 9.84619 17.6986 9.17363 16.8284 8.7085C16.2547 8.40187 15.6371 8.19163 15 8.08395Z" fill="#12131A"/>
<path fill-rule="evenodd" clip-rule="evenodd" d="M9 4.06747C8.16919 4.2079 7.37341 4.52245 6.66658 4.99473C5.67989 5.65402 4.91085 6.59109 4.45673 7.68745C4.0026 8.78381 3.88378 9.99021 4.11529 11.1541C4.28114 11.9879 4.62143 12.773 5.10959 13.4597L9 9.56934V4.06747ZM9.42905 2.00395C10.3309 1.93943 11 2.67575 11 3.48355V9.56934C11 10.0998 10.7893 10.6085 10.4142 10.9836L6.11092 15.2869C5.53972 15.8581 4.54593 15.9056 3.95385 15.2223C3.04703 14.1757 2.42515 12.9088 2.15372 11.5443C1.84504 9.99243 2.00347 8.38389 2.60897 6.92208C3.21447 5.46028 4.23985 4.21085 5.55544 3.33179C6.71227 2.55883 8.04779 2.10277 9.42905 2.00395Z" fill="#12131A"/>
</svg>
