<svg width="24" height="24" viewBox="0 0 24 24" fill="none" xmlns="http://www.w3.org/2000/svg">
<path fill-rule="evenodd" clip-rule="evenodd" d="M3.16415 6.68493C3.36991 5.49156 4.0515 4.53428 4.78569 3.80011C5.95874 2.62708 7.89915 2.76651 8.89245 4.09519L10.5139 6.26415C11.4068 7.45849 11.2869 9.12732 10.2325 10.1818L10.1213 10.2929C9.73076 10.6834 9.73076 11.3166 10.1213 11.7071L12.2929 13.8787C12.6834 14.2692 13.3166 14.2692 13.7071 13.8787L13.8182 13.7675C14.8727 12.7131 16.5415 12.5932 17.7358 13.4861L19.9211 15.1197C21.2412 16.1066 21.3797 18.0345 20.2143 19.1999C19.472 19.9422 18.5042 20.6349 17.2962 20.8435C15.0721 21.2275 10.8093 21.2235 6.79286 17.2071C2.77459 13.1889 2.78162 8.90351 3.16415 6.68493ZM6.19988 5.21434C5.62376 5.79045 5.24416 6.39204 5.13506 7.02476C4.82658 8.8139 4.7813 12.3671 8.20707 15.7929C11.6345 19.2203 15.1679 19.1814 16.9559 18.8727C17.6008 18.7613 18.2128 18.373 18.8001 17.7857C19.104 17.4817 19.0679 16.979 18.7236 16.7216L16.5383 15.0879C16.1402 14.7903 15.5839 14.8303 15.2325 15.1817L15.1213 15.2929C13.9497 16.4645 12.0502 16.4645 10.8786 15.2929L8.70708 13.1213C7.5355 11.9498 7.5355 10.0503 8.70707 8.8787L8.81824 8.76754C9.16971 8.41606 9.20968 7.85978 8.91206 7.46167L7.29059 5.29271C7.02678 4.93982 6.51143 4.9028 6.19988 5.21434Z" fill="#12131A"/>
<path fill-rule="evenodd" clip-rule="evenodd" d="M15.2929 3.29289C15.6834 2.90237 16.3166 2.90237 16.7071 3.29289L18 4.58579L19.2929 3.29289C19.6834 2.90237 20.3166 2.90237 20.7071 3.29289C21.0976 3.68342 21.0976 4.31658 20.7071 4.70711L19.4142 6L20.7071 7.29289C21.0976 7.68342 21.0976 8.31658 20.7071 8.70711C20.3166 9.09763 19.6834 9.09763 19.2929 8.70711L18 7.41421L16.7071 8.70711C16.3166 9.09763 15.6834 9.09763 15.2929 8.70711C14.9024 8.31658 14.9024 7.68342 15.2929 7.29289L16.5858 6L15.2929 4.70711C14.9024 4.31658 14.9024 3.68342 15.2929 3.29289Z" fill="#12131A"/>
</svg>
