<svg width="24" height="24" viewBox="0 0 24 24" fill="none" xmlns="http://www.w3.org/2000/svg">
<path d="M13.1284 3.50992C13.3992 3.02856 14.0089 2.85784 14.4903 3.1286C14.9716 3.39937 15.1423 4.00908 14.8716 4.49044L13.1474 7.55574L19.8716 19.5099C20.1423 19.9913 19.9716 20.601 19.4903 20.8718C19.0089 21.1425 18.3992 20.9718 18.1284 20.4904L12 9.59547L5.87158 20.4904C5.60082 20.9718 4.99111 21.1425 4.50975 20.8718C4.02839 20.601 3.85767 19.9913 4.12843 19.5099L10.8527 7.55574L9.12842 4.49044C8.85766 4.00908 9.02838 3.39937 9.50974 3.1286C9.99109 2.85784 10.6008 3.02856 10.8716 3.50992L12 5.51601L13.1284 3.50992Z" fill="#12131A"/>
<path d="M13 17C13 16.4477 12.5523 16 12 16C11.4477 16 11 16.4477 11 17V19H4C3.44772 19 3 19.4477 3 20C3 20.5523 3.44772 21 4 21H20C20.5523 21 21 20.5523 21 20C21 19.4477 20.5523 19 20 19H13V17Z" fill="#12131A"/>
</svg>
