<svg width="24" height="24" viewBox="0 0 24 24" fill="none" xmlns="http://www.w3.org/2000/svg">
<path fill-rule="evenodd" clip-rule="evenodd" d="M16.3642 16.3639L17.7782 17.7779C17.5585 17.9937 17.3334 18.2007 17.1049 18.3987L13.6635 21.3813C12.7088 22.2087 11.2912 22.2087 10.3365 21.3813L6.89505 18.3987C4.80897 16.5908 3 14.0254 3 10.9997C3 8.76894 3.81158 6.72775 5.15559 5.15527L6.57542 6.5751C5.59065 7.78099 5 9.32136 5 10.9997C5 13.2052 6.33544 15.2671 8.20492 16.8873L11.6463 19.8699C11.8493 20.0458 12.1507 20.0458 12.3537 19.8699L15.7951 16.8873C15.991 16.7176 16.181 16.543 16.3642 16.3639Z" fill="#12131A"/>
<path fill-rule="evenodd" clip-rule="evenodd" d="M9.18775 2.44838C10.0738 2.15714 11.0195 2 12 2C16.9706 2 21 6.02944 21 11C21 12.0285 20.7893 13.0074 20.4306 13.9192C20.2283 14.4331 19.6478 14.6858 19.1339 14.4836C18.6199 14.2814 18.3672 13.7009 18.5694 13.1869C18.8467 12.4822 19 11.7513 19 11C19 7.13401 15.866 4 12 4C11.2343 4 10.4993 4.12256 9.81225 4.34838C9.28757 4.52083 8.72245 4.2353 8.55 3.71063C8.37755 3.18596 8.66308 2.62083 9.18775 2.44838Z" fill="#12131A"/>
<path fill-rule="evenodd" clip-rule="evenodd" d="M2.29289 2.29289C2.68342 1.90237 3.31658 1.90237 3.70711 2.29289L21.7071 20.2929C22.0976 20.6834 22.0976 21.3166 21.7071 21.7071C21.3166 22.0976 20.6834 22.0976 20.2929 21.7071L2.29289 3.70711C1.90237 3.31658 1.90237 2.68342 2.29289 2.29289Z" fill="#12131A"/>
</svg>
