<svg width="24" height="24" viewBox="0 0 24 24" fill="none" xmlns="http://www.w3.org/2000/svg">
<path fill-rule="evenodd" clip-rule="evenodd" d="M7.12143 7.12109L4.93605 7.94623C2.23947 8.96437 2.39048 12.829 5.15831 13.6336L8.66546 14.6531C8.99408 14.7486 9.25103 15.0056 9.34656 15.3342L10.3661 18.8413C11.1707 21.6091 15.0353 21.7602 16.0534 19.0636L16.8786 16.8782L15.3267 15.3264L14.1824 18.3571C13.843 19.256 12.5548 19.2056 12.2866 18.283L11.2671 14.7759C10.9805 13.7901 10.2096 13.0192 9.22374 12.7326L5.71659 11.7131C4.79399 11.4449 4.74364 10.1567 5.64251 9.8173L8.6733 8.67296L7.12143 7.12109Z" fill="#12131A"/>
<path fill-rule="evenodd" clip-rule="evenodd" d="M18.9562 5.71432C19.1143 5.29562 18.7047 4.88608 18.286 5.04416L12.8533 7.09542C12.3366 7.2905 11.7596 7.02979 11.5645 6.51311C11.3694 5.99643 11.6301 5.41943 12.1468 5.22434L17.5796 3.17309C19.6087 2.40697 21.5934 4.3917 20.8273 6.42079L18.776 11.8536C18.5809 12.3703 18.0039 12.631 17.4872 12.4359C16.9705 12.2408 16.7098 11.6638 16.9049 11.1471L18.9562 5.71432Z" fill="#12131A"/>
<path fill-rule="evenodd" clip-rule="evenodd" d="M2.29289 2.29289C2.68342 1.90237 3.31658 1.90237 3.70711 2.29289L21.7071 20.2929C22.0976 20.6834 22.0976 21.3166 21.7071 21.7071C21.3166 22.0976 20.6834 22.0976 20.2929 21.7071L2.29289 3.70711C1.90237 3.31658 1.90237 2.68342 2.29289 2.29289Z" fill="#12131A"/>
</svg>
