<svg width="24" height="24" viewBox="0 0 24 24" fill="none" xmlns="http://www.w3.org/2000/svg">
<path fill-rule="evenodd" clip-rule="evenodd" d="M17.5796 3.17309C19.6086 2.40697 21.5934 4.39169 20.8272 6.42078L16.0534 19.0643C15.0353 21.7608 11.1707 21.6098 10.3661 18.842L9.34656 15.3349C9.25103 15.0063 8.99408 14.7493 8.66546 14.6538L5.15831 13.6343C2.39048 12.8297 2.23947 8.96504 4.93605 7.9469L17.5796 3.17309ZM18.9562 5.71432C19.1143 5.29562 18.7047 4.88607 18.286 5.04416L5.64251 9.81797C4.74364 10.1574 4.79399 11.4456 5.71659 11.7138L9.22374 12.7333C10.2096 13.0199 10.9805 13.7907 11.2671 14.7766L12.2866 18.2837C12.5548 19.2063 13.843 19.2567 14.1824 18.3578L18.9562 5.71432Z" fill="#12131A"/>
</svg>
