<svg width="24" height="24" viewBox="0 0 24 24" fill="none" xmlns="http://www.w3.org/2000/svg">
<path fill-rule="evenodd" clip-rule="evenodd" d="M12 4C8.13401 4 5 7.13401 5 11C5 13.2061 6.33607 15.268 8.20492 16.8876L11.6463 19.8702C11.8493 20.0461 12.1507 20.0461 12.3537 19.8702L15.7951 16.8876C17.6639 15.268 19 13.2061 19 11C19 7.13401 15.866 4 12 4ZM3 11C3 6.02944 7.02944 2 12 2C16.9706 2 21 6.02944 21 11C21 14.0264 19.1902 16.5918 17.1049 18.399L13.6635 21.3816C12.7088 22.209 11.2912 22.209 10.3365 21.3816L6.89505 18.399C4.80977 16.5918 3 14.0264 3 11Z" fill="#12131A"/>
<path d="M9.92378 11.1822L9.03737 13.3082C8.86552 13.7204 9.27908 14.1339 9.69125 13.9621L11.8173 13.0758C11.9379 13.0256 12.0474 12.9522 12.1397 12.8599L14.7028 10.2967C15.0933 9.90621 15.0933 9.27304 14.7027 8.88252L14.117 8.29678C13.7264 7.90627 13.0933 7.90628 12.7028 8.2968L10.1397 10.8599C10.0474 10.9522 9.97402 11.0617 9.92378 11.1822Z" fill="#12131A"/>
</svg>
