<svg width="24" height="24" viewBox="0 0 24 24" fill="none" xmlns="http://www.w3.org/2000/svg">
<path d="M15.9239 19.1822L15.0375 21.3082C14.8656 21.7204 15.2792 22.1339 15.6914 21.9621L17.8175 21.0758C17.938 21.0256 18.0475 20.9522 18.1398 20.8599L21.7029 17.2967C22.0934 16.9062 22.0934 16.273 21.7029 15.8825L21.1171 15.2968C20.7266 14.9063 20.0934 14.9063 19.7029 15.2968L16.1398 18.8599C16.0475 18.9522 15.9741 19.0617 15.9239 19.1822Z" fill="#12131A"/>
<path d="M14 11C14 12.1046 13.1046 13 12 13C10.8954 13 10 12.1046 10 11C10 9.89543 10.8954 9 12 9C13.1046 9 14 9.89543 14 11Z" fill="#12131A"/>
<path fill-rule="evenodd" clip-rule="evenodd" d="M3 11C3 6.02944 7.02944 2 12 2C16.9706 2 21 6.02944 21 11C21 11.3907 20.9696 11.7748 20.912 12.1513C20.8284 12.6972 20.3182 13.072 19.7722 12.9885C19.2263 12.905 18.8515 12.3947 18.935 11.8487C18.9777 11.5695 19 11.2866 19 11C19 7.13401 15.866 4 12 4C8.13401 4 5 7.13401 5 11C5 13.2055 6.33544 15.2674 8.20492 16.8876L11.6463 19.8702C11.748 19.9583 11.873 20.0021 12 20.0021C12.5523 20.0021 13 20.4498 13 21.0021C13 21.5544 12.5523 22.0021 12 22.0021C11.4079 22.0021 10.8137 21.7952 10.3365 21.3816L6.89505 18.399C4.80897 16.5911 3 14.0257 3 11Z" fill="#12131A"/>
</svg>
