<svg width="24" height="24" viewBox="0 0 24 24" fill="none" xmlns="http://www.w3.org/2000/svg">
<path d="M18.5385 15.3099C18.7093 14.8993 19.291 14.8993 19.4618 15.3099L20.2512 17.2079C20.3228 17.3799 20.4841 17.4979 20.6697 17.514L22.5442 17.6765C22.9735 17.7137 23.1578 18.2402 22.8455 18.537L21.4215 19.8905C21.2923 20.0133 21.2382 20.1956 21.2796 20.369L21.7601 22.3833C21.8633 22.8159 21.3927 23.1578 21.0131 22.926L19.2608 21.8557C19.1008 21.7579 18.8995 21.7579 18.7395 21.8557L16.9872 22.926C16.6077 23.1578 16.1371 22.8159 16.2402 22.3833L16.7209 20.3683C16.7621 20.1953 16.7084 20.0134 16.5797 19.8906L15.1605 18.5364C14.8492 18.2393 15.0336 17.7138 15.4624 17.6765L17.3307 17.514C17.5163 17.4979 17.6775 17.3799 17.7491 17.2079L18.5385 15.3099Z" fill="#12131A"/>
<path d="M14 11C14 12.1046 13.1046 13 12 13C10.8954 13 10 12.1046 10 11C10 9.89543 10.8954 9 12 9C13.1046 9 14 9.89543 14 11Z" fill="#12131A"/>
<path fill-rule="evenodd" clip-rule="evenodd" d="M3 11C3 6.02944 7.02944 2 12 2C16.9706 2 21 6.02944 21 11C21 11.3907 20.9696 11.7748 20.912 12.1513C20.8284 12.6972 20.3182 13.072 19.7722 12.9885C19.2263 12.905 18.8515 12.3947 18.935 11.8487C18.9777 11.5695 19 11.2866 19 11C19 7.13401 15.866 4 12 4C8.13401 4 5 7.13401 5 11C5 13.2055 6.33544 15.2674 8.20492 16.8876L11.6463 19.8702C11.8493 20.0461 12.1507 20.0461 12.3537 19.8702C12.771 19.5085 13.4026 19.5536 13.7643 19.971C14.126 20.3883 14.0809 21.0199 13.6635 21.3816C12.7088 22.209 11.2912 22.209 10.3365 21.3816L6.89505 18.399C4.80897 16.5911 3 14.0257 3 11Z" fill="#12131A"/>
</svg>
