<svg width="24" height="24" viewBox="0 0 24 24" fill="none" xmlns="http://www.w3.org/2000/svg">
<path fill-rule="evenodd" clip-rule="evenodd" d="M12 4C8.13401 4 5 7.13401 5 11C5 13.2061 6.33607 15.268 8.20492 16.8876L11.6463 19.8702C11.8493 20.0461 12.1507 20.0461 12.3537 19.8702L15.7951 16.8876C17.6639 15.268 19 13.2061 19 11C19 7.13401 15.866 4 12 4ZM3 11C3 6.02944 7.02944 2 12 2C16.9706 2 21 6.02944 21 11C21 14.0264 19.1902 16.5918 17.1049 18.399L13.6635 21.3816C12.7088 22.209 11.2912 22.209 10.3365 21.3816L6.89505 18.399C4.80977 16.5918 3 14.0264 3 11Z" fill="#12131A"/>
<path d="M11.5385 7.30994C11.7093 6.89929 12.2911 6.89929 12.4619 7.30994L13.2512 9.20786C13.3228 9.37991 13.4841 9.49789 13.6697 9.51398L15.5442 9.67649C15.9735 9.7137 16.1578 10.2402 15.8455 10.537L14.4215 11.8905C14.2923 12.0133 14.2383 12.1956 14.2796 12.369L14.7601 14.3833C14.8633 14.8159 14.3927 15.1578 14.0131 14.926L12.2608 13.8557C12.1008 13.7579 11.8996 13.7579 11.7396 13.8557L9.98726 14.926C9.60771 15.1578 9.13708 14.8159 9.24027 14.3833L9.72091 12.3683C9.76218 12.1953 9.70842 12.0134 9.57973 11.8906L8.16053 10.5364C7.84919 10.2393 8.03367 9.71377 8.4624 9.6765L10.3308 9.51405C10.5163 9.49791 10.6776 9.37994 10.7491 9.20794L11.5385 7.30994Z" fill="#12131A"/>
</svg>
