<svg width="24" height="24" viewBox="0 0 24 24" fill="none" xmlns="http://www.w3.org/2000/svg">
<path fill-rule="evenodd" clip-rule="evenodd" d="M9.88635 2.00003C9.91987 2.00005 9.95382 2.00006 9.98823 2.00006H14.0118C14.0462 2.00006 14.0801 2.00005 14.1137 2.00003C14.7487 1.99973 15.2284 1.9995 15.6911 2.11058C16.0993 2.20857 16.4895 2.37019 16.8474 2.5895C17.2531 2.83813 17.5922 3.17755 18.041 3.62677C18.0647 3.65049 18.0887 3.67451 18.113 3.69884L20.3012 5.88707C20.3256 5.9114 20.3496 5.9354 20.3733 5.9591C20.8225 6.40789 21.1619 6.74699 21.4106 7.15271C21.6299 7.5106 21.7915 7.90078 21.8895 8.30892C22.0006 8.77162 22.0003 9.25142 22 9.88642C22 9.91993 22 9.95389 22 9.98829V14.0118C22 14.0462 22 14.0802 22 14.1137C22.0003 14.7487 22.0006 15.2285 21.8895 15.6912C21.7915 16.0993 21.6299 16.4895 21.4106 16.8474C21.1619 17.2531 20.8225 17.5922 20.3733 18.041C20.3496 18.0647 20.3255 18.0887 20.3012 18.1131L18.113 20.3013C18.0887 20.3256 18.0647 20.3496 18.041 20.3734C17.5922 20.8226 17.2531 21.162 16.8474 21.4106C16.4895 21.6299 16.0993 21.7916 15.6911 21.8895C15.2284 22.0006 14.7486 22.0004 14.1136 22.0001C14.0801 22.0001 14.0462 22.0001 14.0118 22.0001H9.98823C9.95382 22.0001 9.91987 22.0001 9.88636 22.0001C9.25135 22.0004 8.77156 22.0006 8.30886 21.8895C7.90072 21.7916 7.51054 21.6299 7.15265 21.4106C6.74692 21.162 6.40782 20.8226 5.95901 20.3733C5.93533 20.3496 5.91133 20.3256 5.88701 20.3013L3.69878 18.1131C3.67445 18.0887 3.65043 18.0647 3.62672 18.041C3.17749 17.5922 2.83807 17.2531 2.58944 16.8474C2.37013 16.4895 2.20851 16.0993 2.11052 15.6912C1.99944 15.2285 1.99967 14.7487 1.99997 14.1137C1.99999 14.0802 2 14.0462 2 14.0118V9.98829C2 9.95388 1.99999 9.91993 1.99997 9.88641C1.99967 9.25141 1.99944 8.77162 2.11052 8.30892C2.20851 7.90078 2.37013 7.5106 2.58944 7.15271C2.83807 6.74699 3.1775 6.40788 3.62672 5.95909C3.65043 5.9354 3.67445 5.9114 3.69878 5.88707L5.88701 3.69884C5.91134 3.67451 5.93533 3.65049 5.95903 3.62678C6.40782 3.17756 6.74693 2.83813 7.15265 2.5895C7.51054 2.37019 7.90072 2.20857 8.30886 2.11058C8.77155 1.9995 9.25135 1.99973 9.88635 2.00003ZM9.98823 4.00006C9.20686 4.00006 8.97916 4.00649 8.77575 4.05532C8.57168 4.10432 8.37659 4.18513 8.19765 4.29478C8.01929 4.40408 7.85373 4.56055 7.30122 5.11306L5.113 7.30128C4.56048 7.85379 4.40402 8.01935 4.29472 8.19771C4.18506 8.37665 4.10426 8.57174 4.05526 8.77581C4.00643 8.97922 4 9.20692 4 9.98829V14.0118C4 14.7932 4.00643 15.0209 4.05526 15.2243C4.10426 15.4284 4.18506 15.6235 4.29472 15.8024C4.40402 15.9808 4.56048 16.1463 5.113 16.6988L7.30122 18.8871C7.85373 19.4396 8.01929 19.596 8.19765 19.7053C8.37659 19.815 8.57168 19.8958 8.77575 19.9448C8.97916 19.9936 9.20686 20.0001 9.98823 20.0001H14.0118C14.7931 20.0001 15.0208 19.9936 15.2243 19.9448C15.4283 19.8958 15.6234 19.815 15.8024 19.7053C15.9807 19.596 16.1463 19.4396 16.6988 18.8871L18.887 16.6988C19.4395 16.1463 19.596 15.9808 19.7053 15.8024C19.8149 15.6235 19.8957 15.4284 19.9447 15.2243C19.9936 15.0209 20 14.7932 20 14.0118V9.98829C20 9.20692 19.9936 8.97922 19.9447 8.77581C19.8957 8.57174 19.8149 8.37665 19.7053 8.19771C19.596 8.01935 19.4395 7.85379 18.887 7.30128L16.6988 5.11306C16.1463 4.56054 15.9807 4.40408 15.8024 4.29478C15.6234 4.18513 15.4283 4.10432 15.2243 4.05532C15.0208 4.00649 14.7931 4.00006 14.0118 4.00006H9.98823Z" fill="#12131A"/>
</svg>
