<svg width="24" height="24" viewBox="0 0 24 24" fill="none" xmlns="http://www.w3.org/2000/svg">
<path fill-rule="evenodd" clip-rule="evenodd" d="M12 20C16.4183 20 20 16.4183 20 12C20 7.58172 16.4183 4 12 4C7.58172 4 4 7.58172 4 12C4 16.4183 7.58172 20 12 20ZM12 22C17.5228 22 22 17.5228 22 12C22 6.47715 17.5228 2 12 2C6.47715 2 2 6.47715 2 12C2 17.5228 6.47715 22 12 22Z" fill="#12131A"/>
<path d="M12 6C12.5523 6 13 6.44772 13 7V9.38209L16.4472 11.1057C16.9412 11.3527 17.1414 11.9533 16.8944 12.4473C16.6474 12.9413 16.0467 13.1415 15.5528 12.8945L13 11.6182V14.3821L14.4472 15.1057C14.9412 15.3527 15.1414 15.9533 14.8944 16.4473C14.6474 16.9413 14.0467 17.1415 13.5528 16.8945L12 16.1181L10.4472 16.8945C9.95321 17.1415 9.35254 16.9413 9.10555 16.4473C8.85856 15.9533 9.05878 15.3527 9.55276 15.1057L11 14.3821V11.6181L8.44719 12.8945C7.95321 13.1415 7.35254 12.9413 7.10555 12.4473C6.85856 11.9533 7.05878 11.3527 7.55276 11.1057L11 9.38207V7C11 6.44772 11.4477 6 12 6Z" fill="#12131A"/>
</svg>
