<svg width="24" height="24" viewBox="0 0 24 24" fill="none" xmlns="http://www.w3.org/2000/svg">
<path fill-rule="evenodd" clip-rule="evenodd" d="M15 5C13.8954 5 13 5.89543 13 7V17C13 19.2091 11.2091 21 9 21C6.79086 21 5 19.2091 5 17V6H7V17C7 18.1046 7.89543 19 9 19C10.1046 19 11 18.1046 11 17V7C11 4.79086 12.7909 3 15 3C17.2091 3 19 4.79086 19 7V17H17V7C17 5.89543 16.1046 5 15 5Z" fill="#12131A"/>
<path d="M6.86378 3.4805C6.4779 2.819 5.5221 2.819 5.13622 3.4805L3.37726 6.49587C2.98838 7.16253 3.46925 7.99974 4.24104 7.99974H7.75896C8.53076 7.99974 9.01163 7.16253 8.62274 6.49587L6.86378 3.4805Z" fill="#12131A"/>
<path fill-rule="evenodd" clip-rule="evenodd" d="M18 14.9998C16.3431 14.9998 15 16.3429 15 17.9998C15 19.6566 16.3431 20.9998 18 20.9998C19.6569 20.9998 21 19.6566 21 17.9998C21 16.3429 19.6569 14.9998 18 14.9998ZM17 17.9998C17 17.4475 17.4477 16.9998 18 16.9998C18.5523 16.9998 19 17.4475 19 17.9998C19 18.552 18.5523 18.9998 18 18.9998C17.4477 18.9998 17 18.552 17 17.9998Z" fill="#12131A"/>
</svg>
