<svg width="24" height="24" viewBox="0 0 24 24" fill="none" xmlns="http://www.w3.org/2000/svg">
<path fill-rule="evenodd" clip-rule="evenodd" d="M12 20C16.4183 20 20 16.4183 20 12C20 7.58172 16.4183 4 12 4C7.58172 4 4 7.58172 4 12C4 16.4183 7.58172 20 12 20ZM12 22C17.5228 22 22 17.5228 22 12C22 6.47715 17.5228 2 12 2C6.47715 2 2 6.47715 2 12C2 17.5228 6.47715 22 12 22Z" fill="#12131A"/>
<path fill-rule="evenodd" clip-rule="evenodd" d="M10.0785 9.35436L15.3775 8.0157C15.7446 7.92298 16.0775 8.25591 15.9848 8.62293L14.6462 13.922C14.5561 14.2784 14.2779 14.5566 13.9215 14.6466L8.6225 15.9853C8.25549 16.078 7.92255 15.745 8.01527 15.378L9.35389 10.079C9.44391 9.72262 9.72216 9.44438 10.0785 9.35436ZM12 13.0005C12.5523 13.0005 13 12.5528 13 12.0005C13 11.4482 12.5523 11.0005 12 11.0005C11.4477 11.0005 11 11.4482 11 12.0005C11 12.5528 11.4477 13.0005 12 13.0005Z" fill="#12131A"/>
</svg>
