<svg width="24" height="24" viewBox="0 0 24 24" fill="none" xmlns="http://www.w3.org/2000/svg">
<path d="M9.79289 7.79289C10.1834 7.40237 10.8166 7.40237 11.2071 7.79289L12.7071 9.29289C13.0976 9.68342 13.0976 10.3166 12.7071 10.7071C12.3166 11.0976 11.6834 11.0976 11.2929 10.7071L9.79289 9.20711C9.40237 8.81658 9.40237 8.18342 9.79289 7.79289Z" fill="#12131A"/>
<path d="M5.79289 12.7929C6.18342 12.4024 6.81658 12.4024 7.20711 12.7929L8.70711 14.2929C9.09763 14.6834 9.09763 15.3166 8.70711 15.7071C8.31658 16.0976 7.68342 16.0976 7.29289 15.7071L5.79289 14.2071C5.40237 13.8166 5.40237 13.1834 5.79289 12.7929Z" fill="#12131A"/>
<path d="M12.7071 13.2929C12.3166 12.9024 11.6834 12.9024 11.2929 13.2929C10.9024 13.6834 10.9024 14.3166 11.2929 14.7071L12.7929 16.2071C13.1834 16.5976 13.8166 16.5976 14.2071 16.2071C14.5976 15.8166 14.5976 15.1834 14.2071 14.7929L12.7071 13.2929Z" fill="#12131A"/>
<path d="M16 9C15.4477 9 15 8.55228 15 8V4C15 3.44772 15.4477 3 16 3C16.5523 3 17 3.44772 17 4V5.58579L19.2929 3.29289C19.6834 2.90237 20.3166 2.90237 20.7071 3.29289C21.0976 3.68342 21.0976 4.31658 20.7071 4.70711L18.4142 7H20C20.5523 7 21 7.44772 21 8C21 8.55228 20.5523 9 20 9H16Z" fill="#12131A"/>
<path fill-rule="evenodd" clip-rule="evenodd" d="M5.31986 18.6804C7.11301 18.2576 9.36408 17.4502 11.3837 16.3106C12.8055 15.5084 14.0049 14.6005 14.8271 13.6476C15.6437 12.7013 16.0001 11.8198 16.0001 11C16.0001 9.9545 15.6603 9.23866 15.2109 8.78921C14.7614 8.33977 14.0456 8 13.0001 8C12.1803 8 11.2988 8.35642 10.3526 9.17294C9.39968 9.99519 8.49182 11.1946 7.68959 12.6165C6.55005 14.6361 5.74268 16.8872 5.31986 18.6804ZM2.99819 20.5239C3.29502 16.1818 7.23284 6 13.0001 6C16.0001 6 18.0001 8 18.0001 11C18.0001 16.7673 7.81853 20.7053 3.47629 21.002C3.2008 21.0208 2.97936 20.7994 2.99819 20.5239Z" fill="#12131A"/>
</svg>
