<svg width="24" height="24" viewBox="0 0 24 24" fill="none" xmlns="http://www.w3.org/2000/svg">
<path d="M6.05129 4.68404C6.22594 4.1601 6.79226 3.87694 7.3162 4.05159L10.3162 5.05159C10.8401 5.22624 11.1233 5.79256 10.9487 6.3165C10.774 6.84044 10.2077 7.1236 9.68375 6.94895L6.68375 5.94895C6.1598 5.77431 5.87664 5.20799 6.05129 4.68404Z" fill="#12131A"/>
<path d="M7.44719 10.1058L9.44719 11.1058C9.94117 11.3528 10.1414 11.9535 9.8944 12.4475C9.64741 12.9415 9.04674 13.1417 8.55276 12.8947L6.55276 11.8947C6.05878 11.6477 5.85856 11.047 6.10555 10.5531C6.35254 10.0591 6.95321 9.85885 7.44719 10.1058Z" fill="#12131A"/>
<path d="M13.7071 19.7074C14.0976 19.3169 14.0976 18.6837 13.7071 18.2932C13.3166 17.9026 12.6834 17.9026 12.2929 18.2932L10.7929 19.7932C10.4023 20.1837 10.4023 20.8169 10.7929 21.2074C11.1834 21.5979 11.8166 21.5979 12.2071 21.2074L13.7071 19.7074Z" fill="#12131A"/>
<path d="M13.7929 13.7932C14.1834 13.4026 14.8166 13.4026 15.2071 13.7932L15.7071 14.2932C16.0976 14.6837 16.0976 15.3169 15.7071 15.7074C15.3166 16.0979 14.6834 16.0979 14.2929 15.7074L13.7929 15.2074C13.4023 14.8169 13.4023 14.1837 13.7929 13.7932Z" fill="#12131A"/>
<path d="M7.8944 16.4475C8.14139 15.9535 7.94117 15.3528 7.44719 15.1058C6.95321 14.8589 6.35254 15.0591 6.10555 15.5531L5.10555 17.5531C4.85856 18.047 5.05878 18.6477 5.55276 18.8947C6.04674 19.1417 6.64741 18.9415 6.8944 18.4475L7.8944 16.4475Z" fill="#12131A"/>
<path d="M21.8944 11.5531C22.1414 12.047 21.9412 12.6477 21.4472 12.8947L19.4472 13.8947C18.9532 14.1417 18.3525 13.9415 18.1055 13.4475C17.8586 12.9535 18.0588 12.3528 18.5528 12.1058L20.5528 11.1058C21.0467 10.8589 21.6474 11.0591 21.8944 11.5531Z" fill="#12131A"/>
<path d="M15.9487 8.3165C16.1233 7.79256 15.8401 7.22624 15.3162 7.05159C14.7923 6.87694 14.2259 7.1601 14.0513 7.68404L13.5513 9.18404C13.3766 9.70799 13.6598 10.2743 14.1837 10.449C14.7077 10.6236 15.274 10.3404 15.4487 9.8165L15.9487 8.3165Z" fill="#12131A"/>
<path fill-rule="evenodd" clip-rule="evenodd" d="M16 12C16 14.2091 14.2091 16 12 16C9.79086 16 8 14.2091 8 12C8 9.79086 9.79086 8 12 8C14.2091 8 16 9.79086 16 12ZM14 12C14 13.1046 13.1046 14 12 14C10.8954 14 10 13.1046 10 12C10 10.8954 10.8954 10 12 10C13.1046 10 14 10.8954 14 12Z" fill="#12131A"/>
<path fill-rule="evenodd" clip-rule="evenodd" d="M22 12C22 17.5228 17.5228 22 12 22C6.47715 22 2 17.5228 2 12C2 6.47715 6.47715 2 12 2C17.5228 2 22 6.47715 22 12ZM20 12C20 16.4183 16.4183 20 12 20C7.58172 20 4 16.4183 4 12C4 7.58172 7.58172 4 12 4C16.4183 4 20 7.58172 20 12Z" fill="#12131A"/>
</svg>
