<svg width="24" height="24" viewBox="0 0 24 24" fill="none" xmlns="http://www.w3.org/2000/svg">
<path d="M5 10H7C7 9.44772 7.44772 9 8 9C8.55228 9 9 9.44772 9 10V13C9.58148 13.4369 10.261 13.7499 11 13.9V7C11 6.44772 11.4477 6 12 6C12.5523 6 13 6.44772 13 7V13.9C13.7391 13.75 14.4191 13.4369 15.0006 13L15 9C15 8.44772 15.4477 8 16 8C16.5523 8 17 8.44772 17 9V10H19V9C19 7.34315 17.6569 6 16 6C15.6098 6 15.2369 6.07452 14.8949 6.21009C14.5482 4.93647 13.3835 4 12 4C10.3431 4 9 5.34315 9 7V7.17071C8.68722 7.06015 8.35064 7 8 7C6.34315 7 5 8.34315 5 10Z" fill="#12131A"/>
<path fill-rule="evenodd" clip-rule="evenodd" d="M18.7102 11C17.8497 13.8915 15.1711 16 12.0001 16C8.82906 16 6.15051 13.8915 5.28996 11H4.92772C4.26835 11 3.78947 11.627 3.96296 12.2631L5.3266 17.2631C5.44525 17.6982 5.84041 18 6.29136 18H17.7086C18.1595 18 18.5547 17.6982 18.6733 17.2631L20.037 12.2631C20.2105 11.627 19.7316 11 19.0722 11H18.7102ZM17.0001 9C17.0001 11.7614 14.7615 14 12.0001 14C9.23866 14 7.00008 11.7614 7.00008 9H4.92772C2.9496 9 1.51295 10.8809 2.03343 12.7894L3.39707 17.7894C3.75303 19.0945 4.93851 20 6.29136 20H17.7086C19.0614 20 20.2469 19.0945 20.6029 17.7894L21.9665 12.7894C22.487 10.8809 21.0503 9 19.0722 9H17.0001Z" fill="#12131A"/>
</svg>
