<svg width="24" height="24" viewBox="0 0 24 24" fill="none" xmlns="http://www.w3.org/2000/svg">
<path d="M10 14C10.5523 14 11 13.5523 11 13C11 12.4477 10.5523 12 10 12C9.44772 12 9 12.4477 9 13C9 13.5523 9.44772 14 10 14Z" fill="#12131A"/>
<path d="M13 18C13.5523 18 14 17.5523 14 17C14 16.4477 13.5523 16 13 16C12.4477 16 12 16.4477 12 17C12 17.5523 12.4477 18 13 18Z" fill="#12131A"/>
<path d="M4.47876 9L4.22656 7H5.99987C9.15112 7 10.7662 7.53468 12.3161 8.05132L12.3328 8.05689C13.7768 8.53825 15.1621 9 17.9999 9H19.5213L19.269 11H17.9999C14.8486 11 13.2336 10.4653 11.6836 9.94868L11.6669 9.94311C10.2229 9.46175 8.83767 9 5.99987 9H4.47876Z" fill="#12131A"/>
<path fill-rule="evenodd" clip-rule="evenodd" d="M4.02182 5.37533C3.7959 3.58372 5.19245 2 6.99825 2H17.0021C18.808 2 20.2045 3.58376 19.9786 5.3754L18.2128 19.3754C18.0237 20.8752 16.7481 22 15.2364 22H8.76365C7.25192 22 5.97636 20.8752 5.78723 19.3753L4.02182 5.37533ZM6.99825 4C6.39632 4 5.9308 4.52791 6.00611 5.12511L7.77151 19.1251C7.83456 19.6251 8.25974 20 8.76365 20H15.2364C15.7403 20 16.1655 19.6251 16.2286 19.1251L17.9943 5.12513C18.0696 4.52792 17.6041 4 17.0021 4H6.99825Z" fill="#12131A"/>
</svg>
