<svg width="24" height="24" viewBox="0 0 24 24" fill="none" xmlns="http://www.w3.org/2000/svg">
<path fill-rule="evenodd" clip-rule="evenodd" d="M8.95409 14L11.1142 19.4003C11.2591 19.7625 11.6099 20 12 20C12.3901 20 12.741 19.7625 12.8859 19.4003L15.046 14H8.95409ZM7.47706 12C6.7696 12 6.28584 12.7145 6.54858 13.3714L9.25725 20.143C9.70586 21.2646 10.7921 22 12 22C13.208 22 14.2942 21.2646 14.7428 20.143L17.4515 13.3714C17.7142 12.7145 17.2305 12 16.523 12H7.47706Z" fill="#12131A"/>
<path fill-rule="evenodd" clip-rule="evenodd" d="M7.89897 8.66416L6.87446 9.13572C6.35439 9.37511 6 9.89826 6 10.5C6 11.3284 6.67157 12 7.5 12H16.5C17.3284 12 18 11.3284 18 10.5C18 9.89826 17.6456 9.37511 17.1255 9.13573L16.101 8.66417L15.9744 7.54348C15.7492 5.55023 14.0542 4 12 4C9.94575 4 8.25079 5.55023 8.02558 7.54348L7.89897 8.66416ZM17.9618 7.31894C17.6236 4.32591 15.0834 2 12 2C8.91657 2 6.37639 4.32591 6.03823 7.31894C4.83518 7.87268 4 9.08881 4 10.5C4 12.433 5.567 14 7.5 14H16.5C18.433 14 20 12.433 20 10.5C20 9.08881 19.1648 7.87268 17.9618 7.31894Z" fill="#12131A"/>
</svg>
