<svg width="24" height="24" viewBox="0 0 24 24" fill="none" xmlns="http://www.w3.org/2000/svg">
<path d="M7.58586 15L3.29289 19.293C2.90237 19.6835 2.90237 20.3167 3.29289 20.7072C3.68342 21.0977 4.31658 21.0977 4.70711 20.7072L9.00008 16.4142L7.58586 15Z" fill="#12131A"/>
<path fill-rule="evenodd" clip-rule="evenodd" d="M21.0001 9C21.0001 12.3137 18.3138 15 15.0001 15C14.5927 15 14.1949 14.9594 13.8103 14.882L13.6128 15.6723C13.1415 17.5575 10.7937 18.2078 9.41963 16.8337L7.16629 14.5804C5.79221 13.2063 6.4425 10.8585 8.32771 10.3872L9.118 10.1897C9.04065 9.80514 9.00006 9.40731 9.00006 9C9.00006 5.68629 11.6864 3 15.0001 3C18.3138 3 21.0001 5.68629 21.0001 9ZM19.0001 9C19.0001 11.2091 17.2092 13 15.0001 13C12.7909 13 11.0001 11.2091 11.0001 9C11.0001 6.79086 12.7909 5 15.0001 5C17.2092 5 19.0001 6.79086 19.0001 9ZM9.84375 12.0698L8.81279 12.3275C8.43574 12.4218 8.30569 12.8913 8.5805 13.1661L10.8338 15.4195C11.1087 15.6943 11.5782 15.5642 11.6725 15.1872L11.9302 14.1563C11.0735 13.6451 10.3549 12.9265 9.84375 12.0698Z" fill="#12131A"/>
</svg>
