<svg width="24" height="24" viewBox="0 0 24 24" fill="none" xmlns="http://www.w3.org/2000/svg">
<path fill-rule="evenodd" clip-rule="evenodd" d="M16.4721 4C15.3358 4 14.297 4.64201 13.7888 5.65836L12.8944 7.44721C12.6474 7.94119 12.0467 8.14142 11.5528 7.89443C11.0588 7.64744 10.8586 7.04676 11.1055 6.55279L12 4.76393C12.8469 3.07001 14.5783 2 16.4721 2H19C19.5523 2 20 2.44772 20 3C20 3.55228 19.5523 4 19 4H16.4721Z" fill="#12131A"/>
<path fill-rule="evenodd" clip-rule="evenodd" d="M4 4.5C4 3.11929 5.11929 2 6.5 2H9.5C11.433 2 13 3.567 13 5.5C13 6.88071 11.8807 8 10.5 8H7.5C5.567 8 4 6.433 4 4.5ZM6.5 4C6.22386 4 6 4.22386 6 4.5C6 5.32843 6.67157 6 7.5 6H10.5C10.7761 6 11 5.77614 11 5.5C11 4.67157 10.3284 4 9.5 4H6.5Z" fill="#12131A"/>
<path fill-rule="evenodd" clip-rule="evenodd" d="M7 11C7 8.23858 9.23858 6 12 6C14.7614 6 17 8.23858 17 11V11.4981C17 12.1764 17.2361 12.8299 17.5416 13.6754C17.5772 13.7741 17.6138 13.8754 17.6511 13.9797C17.8773 14.6123 18 15.2929 18 16C18 19.3137 15.3137 22 12 22C8.68629 22 6 19.3137 6 16C6 15.2929 6.12274 14.6123 6.34892 13.9797C6.3862 13.8754 6.42279 13.7741 6.45845 13.6754C6.76393 12.8299 7 12.1764 7 11.4981V11ZM12 8C10.3431 8 9 9.34315 9 11V11.4981C9 12.5538 8.63234 13.5579 8.34021 14.3557C8.30263 14.4583 8.2663 14.5576 8.23217 14.653C8.08215 15.0726 8 15.5256 8 16C8 18.2091 9.79086 20 12 20C14.2091 20 16 18.2091 16 16C16 15.5256 15.9178 15.0726 15.7678 14.653C15.7337 14.5576 15.6974 14.4583 15.6598 14.3557C15.3677 13.5579 15 12.5538 15 11.4981V11C15 9.34315 13.6569 8 12 8Z" fill="#12131A"/>
</svg>
