<svg width="24" height="24" viewBox="0 0 24 24" fill="none" xmlns="http://www.w3.org/2000/svg">
<path d="M17.2594 10.2757L14.5332 6.19336C13.6326 6.57136 13 7.4616 13 8.49958C13 9.88029 14.1193 10.9996 15.5 10.9996C16.1861 10.9996 16.8076 10.7232 17.2594 10.2757Z" fill="#12131A"/>
<path d="M10 13C10.5523 13 11 12.5523 11 12C11 11.4477 10.5523 11 10 11C9.44772 11 9 11.4477 9 12C9 12.5523 9.44772 13 10 13Z" fill="#12131A"/>
<path fill-rule="evenodd" clip-rule="evenodd" d="M14.4949 4.33592C13.3072 2.5573 10.6929 2.5573 9.50521 4.33592L3.96614 12.6306C3.10474 13.9205 2.80321 15.4628 3.12554 16.8496C3.45353 18.2607 4.42659 19.4791 6.00353 20.0147C7.62189 20.5644 9.64801 21.001 12.0001 21.001C14.3522 21.001 16.3784 20.5643 17.9968 20.0145C19.5737 19.4789 20.5467 18.2605 20.8746 16.8494C21.1969 15.4627 20.8954 13.9205 20.034 12.6306L14.4949 4.33592ZM11.1684 5.44661C11.5644 4.85373 12.4358 4.85374 12.8317 5.44661L18.3019 13.6381C18.0864 13.7679 17.7967 13.9218 17.4245 14.0785C16.3679 14.5234 14.6258 15.0002 12 15.0002C9.37423 15.0002 7.63214 14.5234 6.57557 14.0785C6.20337 13.9218 5.91369 13.768 5.69823 13.6382L11.1684 5.44661ZM5.00553 15.5442C4.98774 15.8407 5.01125 16.1285 5.07361 16.3968C5.25531 17.1785 5.76651 17.822 6.64675 18.1209C8.08927 18.6109 9.89757 19.001 12.0001 19.001C14.1026 19.001 15.911 18.6108 17.3535 18.1208C18.2337 17.8218 18.7449 17.1784 18.9265 16.3967C18.9889 16.1284 19.0124 15.8407 18.9946 15.5442C18.7654 15.6672 18.5015 15.7951 18.2006 15.9218C16.8821 16.4769 14.8742 17.0002 12 17.0002C9.1258 17.0002 7.11788 16.4769 5.79946 15.9218C5.4986 15.7951 5.23469 15.6672 5.00553 15.5442Z" fill="#12131A"/>
</svg>
