<svg width="24" height="24" viewBox="0 0 24 24" fill="none" xmlns="http://www.w3.org/2000/svg">
<path d="M5 16C5 16.5523 4.55228 17 4 17C3.44772 17 3 16.5523 3 16C3 15.4477 3.44772 15 4 15C4.55228 15 5 15.4477 5 16Z" fill="#12131A"/>
<path d="M5 20C5 20.5523 4.55228 21 4 21C3.44772 21 3 20.5523 3 20C3 19.4477 3.44772 19 4 19C4.55228 19 5 19.4477 5 20Z" fill="#12131A"/>
<path d="M8 20C8.55228 20 9 19.5523 9 19C9 18.4477 8.55228 18 8 18C7.44772 18 7 18.4477 7 19C7 19.5523 7.44772 20 8 20Z" fill="#12131A"/>
<path fill-rule="evenodd" clip-rule="evenodd" d="M13.1188 3.88153C14.2903 2.71009 16.1896 2.71006 17.3612 3.88146L20.1286 6.64845C21.3003 7.82 21.3003 9.71961 20.1287 10.8912L13.8915 17.1285C12.7199 18.3 10.8204 18.3001 9.64885 17.1285L6.8814 14.3612C5.70977 13.1896 5.70978 11.29 6.88144 10.1184L13.1188 3.88153ZM15.9471 5.29577L18.7144 8.06276C19.105 8.45328 19.105 9.08648 18.7145 9.47702L15.3028 12.8887L11.1213 8.70719L14.5329 5.2958C14.9234 4.90532 15.5565 4.90531 15.9471 5.29577ZM9.70702 10.1214L8.2956 11.5327C7.90505 11.9232 7.90504 12.5564 8.29559 12.9469L11.063 15.7143C11.4536 16.1048 12.0867 16.1048 12.4772 15.7143L13.8886 14.3029L9.70702 10.1214Z" fill="#12131A"/>
</svg>
