<svg width="24" height="24" viewBox="0 0 24 24" fill="none" xmlns="http://www.w3.org/2000/svg">
<path d="M11 14V20H9C8.44772 20 8 20.4477 8 21C8 21.5523 8.44772 22 9 22H15C15.5523 22 16 21.5523 16 21C16 20.4477 15.5523 20 15 20H13V14H11Z" fill="#12131A"/>
<path fill-rule="evenodd" clip-rule="evenodd" d="M6.82839 2.53911C7.42924 2.10652 8.11859 2 8.68236 2L15.3171 2.00001C15.8809 2.00001 16.5702 2.1065 17.1711 2.53908C19.3617 4.11605 20.4337 7.45925 19.8406 10.354C19.5359 11.8416 18.7832 13.2732 17.4597 14.3284C16.1347 15.3848 14.3186 16 11.9998 16C9.68089 16 7.86478 15.3848 6.53987 14.3284C5.21639 13.2732 4.46372 11.8416 4.15896 10.354C3.56592 7.45926 4.638 4.11609 6.82839 2.53911ZM8.68235 4C8.3441 4 8.12812 4.06777 7.99695 4.16221C6.56489 5.19323 5.6516 7.67473 6.11826 9.95263C6.34335 11.0514 6.8818 12.0431 7.78671 12.7647C8.69017 13.485 10.0397 14 11.9998 14C13.9598 14 15.3094 13.485 16.2128 12.7646C17.1178 12.0431 17.6562 11.0513 17.8813 9.9526C18.348 7.6747 17.4348 5.19322 16.0026 4.16223C15.8714 4.06778 15.6554 4.00001 15.3171 4.00002L8.68235 4Z" fill="#12131A"/>
</svg>
