<svg width="24" height="24" viewBox="0 0 24 24" fill="none" xmlns="http://www.w3.org/2000/svg">
<path fill-rule="evenodd" clip-rule="evenodd" d="M17 11C16.4477 11 16 10.5523 16 10V8H14C13.4477 8 13 7.55228 13 7C13 6.44772 13.4477 6 14 6H16V4C16 3.44772 16.4477 3 17 3C17.5523 3 18 3.44772 18 4V6H20C20.5523 6 21 6.44772 21 7C21 7.55228 20.5523 8 20 8H18V10C18 10.5523 17.5523 11 17 11ZM3 7C3 6.44772 3.44772 6 4 6H10C10.5523 6 11 6.44772 11 7C11 7.55228 10.5523 8 10 8H4C3.44772 8 3 7.55228 3 7ZM13 15C13 14.4477 13.4477 14 14 14H20C20.5523 14 21 14.4477 21 15C21 15.5523 20.5523 16 20 16H14C13.4477 16 13 15.5523 13 15ZM14 18C13.4477 18 13 18.4477 13 19C13 19.5523 13.4477 20 14 20H20C20.5523 20 21 19.5523 21 19C21 18.4477 20.5523 18 20 18H14ZM8.41421 17L10.7071 19.2929C11.0976 19.6834 11.0976 20.3166 10.7071 20.7071C10.3166 21.0976 9.68342 21.0976 9.29289 20.7071L7 18.4142L4.70711 20.7071C4.31658 21.0976 3.68342 21.0976 3.29289 20.7071C2.90237 20.3166 2.90237 19.6834 3.29289 19.2929L5.58579 17L3.29289 14.7071C2.90237 14.3166 2.90237 13.6834 3.29289 13.2929C3.68342 12.9024 4.31658 12.9024 4.70711 13.2929L7 15.5858L9.29289 13.2929C9.68342 12.9024 10.3166 12.9024 10.7071 13.2929C11.0976 13.6834 11.0976 14.3166 10.7071 14.7071L8.41421 17Z" fill="#12131A"/>
</svg>
