<svg width="24" height="24" viewBox="0 0 24 24" fill="none" xmlns="http://www.w3.org/2000/svg">
<path fill-rule="evenodd" clip-rule="evenodd" d="M11.0001 4.00124C11.0001 2.44033 12.7084 1.48106 14.0412 2.29356L19.0425 5.34259C20.281 6.09763 20.3216 7.88144 19.1187 8.69201L14.2096 12L19.1187 15.308C20.3216 16.1186 20.281 17.9024 19.0425 18.6575L14.0412 21.7065C12.7084 22.5191 11.0001 21.5598 11.0001 19.9989V14.1627L5.55892 17.8293C5.10092 18.1379 4.47944 18.0168 4.17081 17.5588C3.86219 17.1008 3.98328 16.4794 4.44128 16.1707L10.6306 12L4.44128 7.82931C3.98328 7.52069 3.86219 6.89921 4.17081 6.4412C4.47944 5.9832 5.10092 5.86211 5.55892 6.17073L11.0001 9.8373V4.00124ZM13.0001 13.5967L17.9881 16.9579L13.0001 19.9989V13.5967ZM13.0001 10.4033V4.00124L17.9881 7.04215L13.0001 10.4033Z" fill="#12131A"/>
</svg>
