<svg width="24" height="24" viewBox="0 0 24 24" fill="none" xmlns="http://www.w3.org/2000/svg">
<path fill-rule="evenodd" clip-rule="evenodd" d="M19 16.5C19 15.6716 18.3284 15 17.5 15H8C5.23858 15 3 12.7614 3 10C3 7.23858 5.23858 5 8 5L11 5V7L8 7C6.34315 7 5 8.34315 5 10C5 11.6569 6.34315 13 8 13H17.5C19.433 13 21 14.567 21 16.5C21 18.433 19.433 20 17.5 20H4C3.44772 20 3 19.5523 3 19C3 18.4477 3.44772 18 4 18H17.5C18.3284 18 19 17.3284 19 16.5Z" fill="#12131A"/>
<path d="M20 3H16V5H20C20.5523 5 21 4.55228 21 4C21 3.44772 20.5523 3 20 3Z" fill="#12131A"/>
<path d="M20 7H16V9H20C20.5523 9 21 8.55228 21 8C21 7.44772 20.5523 7 20 7Z" fill="#12131A"/>
<path fill-rule="evenodd" clip-rule="evenodd" d="M16 4H13C11.8954 4 11 4.89543 11 6C11 7.10457 11.8954 8 13 8H16V4ZM13 2C10.7909 2 9 3.79086 9 6C9 8.20914 10.7909 10 13 10H17C17.5523 10 18 9.55228 18 9V3C18 2.44772 17.5523 2 17 2H13Z" fill="#12131A"/>
</svg>
