<svg width="24" height="24" viewBox="0 0 24 24" fill="none" xmlns="http://www.w3.org/2000/svg">
<path fill-rule="evenodd" clip-rule="evenodd" d="M14.2243 4.05526C14.0208 4.00643 13.7931 4 13.0118 4H9.8C8.94342 4 8.36113 4.00078 7.91104 4.03755C7.47262 4.07337 7.24842 4.1383 7.09202 4.21799C6.7157 4.40974 6.40973 4.7157 6.21799 5.09202C6.1383 5.24842 6.07337 5.47262 6.03755 5.91104C6.00078 6.36113 6 6.94342 6 7.8V16.2C6 17.0566 6.00078 17.6389 6.03755 18.089C6.07337 18.5274 6.1383 18.7516 6.21799 18.908C6.40973 19.2843 6.7157 19.5903 7.09202 19.782C7.24842 19.8617 7.47262 19.9266 7.91104 19.9625C8.36113 19.9992 8.94342 20 9.8 20H14.2C15.0566 20 15.6389 19.9992 16.089 19.9625C16.5274 19.9266 16.7516 19.8617 16.908 19.782C17.2843 19.5903 17.5903 19.2843 17.782 18.908C17.8617 18.7516 17.9266 18.5274 17.9624 18.089C17.9992 17.6389 18 17.0566 18 16.2V8.98823C18 8.20686 17.9936 7.97916 17.9447 7.77575C17.8957 7.57168 17.8149 7.37659 17.7053 7.19765C17.596 7.01929 17.4395 6.85373 16.887 6.30122L15.6988 5.113C15.1463 4.56048 14.9807 4.40402 14.8024 4.29472C14.6234 4.18506 14.4283 4.10426 14.2243 4.05526ZM13.1137 1.99997C13.7487 1.99967 14.2284 1.99944 14.6911 2.11052C15.0993 2.20851 15.4895 2.37013 15.8474 2.58944C16.2531 2.83807 16.5922 3.17749 17.041 3.62672C17.0647 3.65043 17.0887 3.67445 17.113 3.69878L18.3012 4.88701C18.3255 4.91134 18.3496 4.93533 18.3733 4.95902C18.8225 5.40782 19.1619 5.74693 19.4106 6.15265C19.6299 6.51054 19.7915 6.90072 19.8895 7.30886C20.0006 7.77155 20.0003 8.25135 20 8.88634C20 8.91987 20 8.95382 20 8.98823V16.2413C20 17.0463 20 17.7106 19.9558 18.2518C19.9099 18.8139 19.8113 19.3306 19.564 19.816C19.1805 20.5686 18.5686 21.1805 17.816 21.564C17.3306 21.8113 16.8139 21.9099 16.2518 21.9558C15.7106 22 15.0463 22 14.2413 22H9.75868C8.95372 22 8.28936 22 7.74818 21.9558C7.18608 21.9099 6.66937 21.8113 6.18404 21.564C5.43139 21.1805 4.81947 20.5686 4.43597 19.816C4.18868 19.3306 4.09012 18.8139 4.04419 18.2518C3.99998 17.7106 3.99999 17.0463 4 16.2413V7.7587C3.99999 6.95373 3.99998 6.28937 4.04419 5.74818C4.09012 5.18608 4.18868 4.66938 4.43597 4.18404C4.81947 3.43139 5.43139 2.81947 6.18404 2.43598C6.66937 2.18869 7.18608 2.09012 7.74817 2.0442C8.28937 1.99998 8.95373 1.99999 9.7587 2L13.0118 2C13.0462 2 13.0801 1.99999 13.1137 1.99997Z" fill="#12131A"/>
<path d="M9 6C8.44772 6 8 6.44772 8 7V9C8 9.55228 8.44772 10 9 10C9.55228 10 10 9.55228 10 9V7C10 6.44772 9.55228 6 9 6Z" fill="#12131A"/>
<path d="M13 6C12.4477 6 12 6.44772 12 7V9C12 9.55228 12.4477 10 13 10C13.5523 10 14 9.55228 14 9V7C14 6.44772 13.5523 6 13 6Z" fill="#12131A"/>
</svg>
