<svg width="24" height="24" viewBox="0 0 24 24" fill="none" xmlns="http://www.w3.org/2000/svg">
<path fill-rule="evenodd" clip-rule="evenodd" d="M4.05532 9.77575C4.00649 9.97916 4.00006 10.2069 4.00006 10.9882L4.00006 14.2C4.00006 15.0566 4.00084 15.6389 4.03761 16.089C4.07343 16.5274 4.13836 16.7516 4.21805 16.908C4.4098 17.2843 4.71576 17.5903 5.09208 17.782C5.24848 17.8617 5.47269 17.9266 5.9111 17.9625C6.36119 17.9992 6.94348 18 7.80006 18H16.2001C17.0566 18 17.6389 17.9992 18.089 17.9625C18.5274 17.9266 18.7516 17.8617 18.908 17.782C19.2844 17.5903 19.5903 17.2843 19.7821 16.908C19.8618 16.7516 19.9267 16.5274 19.9625 16.089C19.9993 15.6389 20.0001 15.0566 20.0001 14.2V9.8C20.0001 8.94342 19.9993 8.36113 19.9625 7.91104C19.9267 7.47262 19.8618 7.24842 19.7821 7.09202C19.5903 6.7157 19.2844 6.40973 18.908 6.21799C18.7516 6.1383 18.5274 6.07337 18.089 6.03755C17.6389 6.00078 17.0566 6 16.2001 6L8.98829 6C8.20692 6 7.97922 6.00643 7.77581 6.05526C7.57174 6.10426 7.37665 6.18506 7.19771 6.29472C7.01935 6.40402 6.85379 6.56048 6.30128 7.11299L5.11306 8.30122C4.56055 8.85373 4.40408 9.01928 4.29478 9.19764C4.18513 9.37659 4.10432 9.57168 4.05532 9.77575ZM2.00003 10.8863C1.99973 10.2513 1.9995 9.77155 2.11058 9.30886C2.20857 8.90072 2.37019 8.51054 2.5895 8.15265C2.83813 7.74693 3.17756 7.40782 3.62678 6.95903C3.65049 6.93533 3.67451 6.91134 3.69884 6.88701L4.88707 5.69878C4.9114 5.67445 4.93539 5.65043 4.95909 5.62672C5.40788 5.1775 5.74699 4.83807 6.15271 4.58944C6.5106 4.37013 6.90078 4.20851 7.30892 4.11052C7.77162 3.99944 8.25141 3.99967 8.8864 3.99997C8.91993 3.99999 8.95388 4 8.98829 4L16.2413 4C17.0463 3.99999 17.7107 3.99998 18.2519 4.04419C18.814 4.09012 19.3307 4.18868 19.816 4.43598C20.5687 4.81947 21.1806 5.43139 21.5641 6.18404C21.8114 6.66937 21.9099 7.18608 21.9559 7.74817C22.0001 8.28936 22.0001 8.95372 22.0001 9.75868V14.2413C22.0001 15.0463 22.0001 15.7106 21.9559 16.2518C21.9099 16.8139 21.8114 17.3306 21.5641 17.816C21.1806 18.5686 20.5687 19.1805 19.816 19.564C19.3307 19.8113 18.814 19.9099 18.2519 19.9558C17.7107 20 17.0463 20 16.2414 20H7.75876C6.95379 20 6.28943 20 5.74824 19.9558C5.18614 19.9099 4.66944 19.8113 4.1841 19.564C3.43145 19.1805 2.81953 18.5686 2.43604 17.816C2.18875 17.3306 2.09018 16.8139 2.04426 16.2518C2.00004 15.7106 2.00005 15.0463 2.00006 14.2413L2.00006 10.9882C2.00006 10.9538 2.00005 10.9199 2.00003 10.8863Z" fill="#12131A"/>
<path d="M11 12.6C11 12.0399 11 11.7599 11.109 11.546C11.2049 11.3578 11.3578 11.2049 11.546 11.109C11.7599 11 12.0399 11 12.6 11H16.4C16.9601 11 17.2401 11 17.454 11.109C17.6422 11.2049 17.7951 11.3578 17.891 11.546C18 11.7599 18 12.0399 18 12.6V14.4C18 14.9601 18 15.2401 17.891 15.454C17.7951 15.6422 17.6422 15.7951 17.454 15.891C17.2401 16 16.9601 16 16.4 16H12.6C12.0399 16 11.7599 16 11.546 15.891C11.3578 15.7951 11.2049 15.6422 11.109 15.454C11 15.2401 11 14.9601 11 14.4V12.6Z" fill="#12131A"/>
</svg>
