<svg width="24" height="24" viewBox="0 0 24 24" fill="none" xmlns="http://www.w3.org/2000/svg">
<path d="M3 20C3 19.4477 3.44772 19 4 19H20C20.5523 19 21 19.4477 21 20V20C21 20.5523 20.5523 21 20 21H4C3.44772 21 3 20.5523 3 20V20Z" fill="#12131A"/>
<path fill-rule="evenodd" clip-rule="evenodd" d="M6.0069 16.9998C3.5384 16.9998 2.12627 14.1848 3.60216 12.2061L9.55522 4.22497C10.7749 2.58972 13.2251 2.58972 14.4449 4.22497L20.3979 12.2061C21.8738 14.1848 20.4617 16.9998 17.9932 16.9998L6.0069 16.9998ZM5.20532 13.4019C4.71335 14.0615 5.18406 14.9998 6.0069 14.9998L17.9932 14.9998C18.816 14.9998 19.2867 14.0615 18.7947 13.4019L12.8417 5.42075C12.4218 4.8578 11.5783 4.8578 11.1584 5.42075L5.20532 13.4019Z" fill="#12131A"/>
</svg>
