<svg width="24" height="24" viewBox="0 0 24 24" fill="none" xmlns="http://www.w3.org/2000/svg">
<path d="M21.0015 4C21.0015 3.44772 20.5537 3 20.0015 3C19.4492 3 19.0015 3.44772 19.0015 4V20C19.0015 20.5523 19.4492 21 20.0015 21C20.5537 21 21.0015 20.5523 21.0015 20V4Z" fill="#12131A"/>
<path fill-rule="evenodd" clip-rule="evenodd" d="M17.0013 6.0069C17.0013 3.53842 14.1863 2.12628 12.2076 3.60215L4.22645 9.55513C2.59119 10.7748 2.59118 13.225 4.22642 14.4448L12.2076 20.3979C14.1863 21.8738 17.0013 20.4617 17.0013 17.9932V6.0069ZM13.4034 5.20531C14.0629 4.71336 15.0013 5.18407 15.0013 6.0069V17.9932C15.0013 18.816 14.0629 19.2867 13.4034 18.7947L5.42221 12.8416C4.85926 12.4217 4.85926 11.5782 5.42222 11.1583L13.4034 5.20531Z" fill="#12131A"/>
</svg>
