<svg width="24" height="24" viewBox="0 0 24 24" fill="none" xmlns="http://www.w3.org/2000/svg">
<path fill-rule="evenodd" clip-rule="evenodd" d="M20.9998 6.0069C20.9998 3.53842 18.1849 2.12628 16.2062 3.60215L8.22499 9.55513C6.58973 10.7748 6.58971 13.225 8.22496 14.4448L16.2061 20.3979C18.1848 21.8738 20.9998 20.4617 20.9998 17.9932V6.0069ZM17.4019 5.20531C18.0615 4.71336 18.9998 5.18407 18.9998 6.0069V17.9932C18.9998 18.816 18.0615 19.2867 17.4019 18.7947L9.42075 12.8416C8.85779 12.4217 8.8578 11.5782 9.42076 11.1583L17.4019 5.20531Z" fill="#12131A"/>
<path d="M5 4C5 3.44772 4.55228 3 4 3C3.44772 3 3 3.44772 3 4V20C3 20.5523 3.44772 21 4 21C4.55228 21 5 20.5523 5 20V4Z" fill="#12131A"/>
</svg>
