<svg width="24" height="24" viewBox="0 0 24 24" fill="none" xmlns="http://www.w3.org/2000/svg">
<path fill-rule="evenodd" clip-rule="evenodd" d="M16.9671 6.56145C13.6979 5.81415 10.3021 5.81415 7.03289 6.56145C6.42857 6.69958 6 7.23717 6 7.85708V14.2777C6 15.0567 6.35911 15.7922 6.97337 16.2712C9.92823 18.5758 14.0718 18.5758 17.0266 16.2712C17.6409 15.7922 18 15.0567 18 14.2777V7.85708C18 7.23717 17.5714 6.69958 16.9671 6.56145ZM6.58722 4.61173C10.1498 3.79739 13.8502 3.79739 17.4128 4.61173C18.9265 4.95775 20 6.3043 20 7.85708V14.2777C20 15.6729 19.3568 16.9902 18.2566 17.8483C14.5787 20.7168 9.42128 20.7168 5.74337 17.8483C4.64319 16.9902 4 15.6729 4 14.2777V7.85708C4 6.3043 5.07349 4.95775 6.58722 4.61173Z" fill="#12131A"/>
<path fill-rule="evenodd" clip-rule="evenodd" d="M10 9C9.44772 9 9 9.44772 9 10C9 10.5523 9.44772 11 10 11H14C14.5523 11 15 10.5523 15 10C15 9.44772 14.5523 9 14 9H10ZM10 13C9.44772 13 9 13.4477 9 14C9 14.5523 9.44772 15 10 15H14C14.5523 15 15 14.5523 15 14C15 13.4477 14.5523 13 14 13H10Z" fill="#12131A"/>
<path fill-rule="evenodd" clip-rule="evenodd" d="M3 8C2.44772 8 2 8.44772 2 9C2 9.55228 2.44772 10 3 10H5C5.55228 10 6 9.55228 6 9C6 8.44772 5.55228 8 5 8H3ZM19 8C18.4477 8 18 8.44772 18 9C18 9.55228 18.4477 10 19 10H21C21.5523 10 22 9.55228 22 9C22 8.44772 21.5523 8 21 8H19ZM2 13C2 12.4477 2.44772 12 3 12H5C5.55228 12 6 12.4477 6 13C6 13.5523 5.55228 14 5 14H3C2.44772 14 2 13.5523 2 13ZM19 12C18.4477 12 18 12.4477 18 13C18 13.5523 18.4477 14 19 14H21C21.5523 14 22 13.5523 22 13C22 12.4477 21.5523 12 21 12H19Z" fill="#12131A"/>
</svg>
