<svg width="24" height="24" viewBox="0 0 24 24" fill="none" xmlns="http://www.w3.org/2000/svg">
<path fill-rule="evenodd" clip-rule="evenodd" d="M12.0679 4.53786C14.1125 2.49324 17.4275 2.49324 19.4721 4.53786C21.5167 6.58247 21.5167 9.89745 19.4721 11.9421L11.9421 19.4721C9.89746 21.5167 6.58248 21.5167 4.53786 19.4721C2.49324 17.4275 2.49324 14.1125 4.53786 12.0679L12.0679 4.53786ZM18.0579 5.95207C16.9455 4.83975 15.2248 4.70661 13.9669 5.55265L18.4573 10.0431C19.3033 8.7851 19.1702 7.0644 18.0579 5.95207ZM6.92418 12.51L12.51 6.92418L17.0857 11.5L11.5 17.0857L6.92418 12.51ZM5.55265 13.9669C4.70661 15.2248 4.83975 16.9455 5.95207 18.0579C7.06439 19.1702 8.7851 19.3033 10.0431 18.4573L5.55265 13.9669Z" fill="#12131A"/>
</svg>
