<svg width="24" height="24" viewBox="0 0 24 24" fill="none" xmlns="http://www.w3.org/2000/svg">
<path fill-rule="evenodd" clip-rule="evenodd" d="M19.4721 4.53786C17.4275 2.49324 14.1125 2.49324 12.0679 4.53786L4.53786 12.0679C2.49324 14.1125 2.49324 17.4275 4.53786 19.4721C6.58248 21.5167 9.89746 21.5167 11.9421 19.4721L19.4721 11.9421C21.5167 9.89745 21.5167 6.58247 19.4721 4.53786ZM13.4821 5.95207C14.7456 4.6885 16.7943 4.6885 18.0579 5.95207C19.3214 7.21564 19.3214 9.26428 18.0579 10.5278L15 13.5857L10.4242 9.00996L13.4821 5.95207ZM9.00996 10.4242L5.95207 13.4821C4.6885 14.7456 4.6885 16.7943 5.95207 18.0579C7.21564 19.3214 9.26429 19.3214 10.5279 18.0579L13.5857 15L9.00996 10.4242Z" fill="#12131A"/>
</svg>
