<svg width="24" height="24" viewBox="0 0 24 24" fill="none" xmlns="http://www.w3.org/2000/svg">
<path fill-rule="evenodd" clip-rule="evenodd" d="M7.37859 17.7931L6.20702 16.6216L5.24413 17.5844C4.92059 17.9079 4.92058 18.4324 5.2441 18.7559C5.5676 19.0794 6.0921 19.0795 6.41562 18.756L7.37859 17.7931ZM7.58262 15.1687C7.77781 14.8798 7.92198 14.5579 8.00726 14.2168L8.73854 11.2917C8.7825 11.1158 8.87341 10.9553 9.00157 10.8271L13.9641 5.86446C15.116 4.71252 16.9837 4.71249 18.1356 5.86441C19.2875 7.01632 19.2876 8.88395 18.1357 10.0359L13.1731 14.9987C13.045 15.1268 12.8844 15.2178 12.7085 15.2617L9.78341 15.993L9.7834 15.993C9.44233 16.0783 9.1204 16.2224 8.83151 16.4176L7.58262 15.1687ZM13.1936 17.202L10.2685 17.9333C10.0927 17.9772 9.93209 18.0681 9.80394 18.1963L7.82977 20.1703C6.72518 21.2747 4.93439 21.2747 3.82987 20.1701C2.72529 19.0655 2.72534 17.2746 3.82997 16.1701L5.80391 14.1963C5.93208 14.0682 6.02301 13.9076 6.06697 13.7317L6.79825 10.8066C6.93013 10.2791 7.20287 9.79737 7.58734 9.4129L12.5499 4.45026C14.4828 2.51726 17.6168 2.51723 19.5498 4.45017C21.4828 6.38312 21.4828 9.51707 19.5499 11.4501L14.5874 16.4129C14.2029 16.7974 13.7211 17.0701 13.1936 17.202Z" fill="#12131A"/>
<path fill-rule="evenodd" clip-rule="evenodd" d="M16.7071 7.29289C17.0976 7.68342 17.0976 8.31658 16.7071 8.70711L14.7071 10.7071C14.3166 11.0976 13.6834 11.0976 13.2929 10.7071C12.9024 10.3166 12.9024 9.68342 13.2929 9.29289L15.2929 7.29289C15.6834 6.90237 16.3166 6.90237 16.7071 7.29289Z" fill="#12131A"/>
</svg>
