<svg width="24" height="24" viewBox="0 0 24 24" fill="none" xmlns="http://www.w3.org/2000/svg">
<path fill-rule="evenodd" clip-rule="evenodd" d="M19.7782 5.63638L18.364 4.22217L15.4765 7.1097C14.7536 6.59491 13.9116 6.23639 13 6.08345V2.00049L11 2.00049V6.08345C10.0882 6.23641 9.24622 6.595 8.52323 7.1099L5.63602 4.22269L4.22181 5.6369L7.10909 8.52418C6.59436 9.24707 6.23589 10.0889 6.08296 11.0005H2L2 13.0005L6.08296 13.0005C6.2359 13.9121 6.59442 14.754 7.10921 15.477L4.22196 18.3642L5.63617 19.7784L8.52341 16.8912C9.24636 17.406 10.0883 17.7646 11 17.9175V22.0005H13V17.9175C13.9116 17.7646 14.7534 17.4061 15.4763 16.8914L18.3639 19.779L19.7781 18.3647L16.8906 15.4773C17.4055 14.7543 17.7641 13.9122 17.917 13.0005H22V11.0005H17.917C17.7641 10.0888 17.4055 9.24684 16.8907 8.5239L19.7782 5.63638ZM9.13975 14.7967L9.20375 14.8607C9.92492 15.5659 10.9117 16.0005 12 16.0005C14.2085 16.0005 15.9989 14.2107 16 12.0025V11.9985C15.9989 9.79025 14.2085 8.00049 12 8.00049C10.9117 8.00049 9.92495 8.4351 9.20377 9.14022L9.13973 9.20426C8.43461 9.92543 8 10.9122 8 12.0005C8 13.0888 8.43462 14.0756 9.13975 14.7967Z" fill="#12131A"/>
<path fill-rule="evenodd" clip-rule="evenodd" d="M19.778 7.05037C20.1685 6.65984 20.1685 6.02668 19.778 5.63616L18.3638 4.22194C17.9733 3.83142 17.3401 3.83142 16.9496 4.22194C16.5591 4.61247 16.559 5.24563 16.9496 5.63616L18.3638 7.05037C18.7543 7.44089 19.3875 7.44089 19.778 7.05037ZM14 3.00049C14 2.4482 13.5523 2.00049 13 2.00049H11C10.4477 2.00049 10 2.4482 10 3.00049C10 3.55277 10.4477 4.00049 11 4.00049L13 4.00049C13.5523 4.00049 14 3.55277 14 3.00049ZM21 14.0005C21.5523 14.0005 22 13.5528 22 13.0005V11.0005C22 10.4482 21.5523 10.0005 21 10.0005C20.4477 10.0005 20 10.4482 20 11.0005V13.0005C20 13.5528 20.4477 14.0005 21 14.0005ZM3 14.0005C3.55229 14.0005 4 13.5528 4 13.0005V11.0005C4 10.4482 3.55229 10.0005 3 10.0005C2.44772 10.0005 2 10.4482 2 11.0005L2 13.0005C2 13.5528 2.44772 14.0005 3 14.0005ZM13 20.0005C13.5523 20.0005 14 20.4482 14 21.0005C14 21.5528 13.5523 22.0005 13 22.0005H11C10.4477 22.0005 10 21.5528 10 21.0005C10 20.4482 10.4477 20.0005 11 20.0005H13ZM5.63606 7.05119C5.24554 7.44172 4.61237 7.44172 4.22185 7.05119C3.83133 6.66067 3.83133 6.0275 4.22185 5.63698L5.63606 4.22277C6.02659 3.83224 6.65975 3.83224 7.05028 4.22277C7.4408 4.61329 7.4408 5.24646 7.05028 5.63698L5.63606 7.05119ZM16.9499 19.7787C17.3404 20.1693 17.9736 20.1693 18.3641 19.7787L19.7783 18.3645C20.1688 17.974 20.1688 17.3408 19.7783 16.9503C19.3878 16.5598 18.7546 16.5598 18.3641 16.9503L16.9499 18.3645C16.5594 18.755 16.5594 19.3882 16.9499 19.7787ZM7.05022 18.3647C7.44074 18.7552 7.44074 19.3884 7.05022 19.7789C6.65969 20.1694 6.02653 20.1694 5.636 19.7789L4.22179 18.3647C3.83127 17.9741 3.83127 17.341 4.22179 16.9505C4.61231 16.5599 5.24548 16.5599 5.636 16.9505L7.05022 18.3647Z" fill="#12131A"/>
</svg>
