<svg width="24" height="24" viewBox="0 0 24 24" fill="none" xmlns="http://www.w3.org/2000/svg">
<path d="M4.50049 18.6148C6.61302 17.1748 8.00007 14.7492 8.00007 11.9998C8.00007 9.25026 6.61302 6.82473 4.50049 5.38472C4.95162 4.87365 5.45418 4.40906 6.00007 3.99902C8.42896 5.82344 10.0001 8.72812 10.0001 11.9998C10.0001 15.2714 8.42896 18.1761 6.00007 20.0005C5.45418 19.5905 4.95162 19.1259 4.50049 18.6148Z" fill="#12131A"/>
<path d="M18.0001 3.99903C15.5712 5.82344 14.0001 8.72812 14.0001 11.9998C14.0001 15.2714 15.5712 18.1761 18.0001 20.0005C18.546 19.5905 19.0485 19.1259 19.4997 18.6148C17.3871 17.1748 16.0001 14.7492 16.0001 11.9998C16.0001 9.25026 17.3871 6.82473 19.4997 5.38472C19.0485 4.87366 18.546 4.40906 18.0001 3.99903Z" fill="#12131A"/>
<path fill-rule="evenodd" clip-rule="evenodd" d="M12 20C16.4183 20 20 16.4183 20 12C20 7.58172 16.4183 4 12 4C7.58172 4 4 7.58172 4 12C4 16.4183 7.58172 20 12 20ZM12 22C17.5228 22 22 17.5228 22 12C22 6.47715 17.5228 2 12 2C6.47715 2 2 6.47715 2 12C2 17.5228 6.47715 22 12 22Z" fill="#12131A"/>
</svg>
