<svg width="24" height="24" viewBox="0 0 24 24" fill="none" xmlns="http://www.w3.org/2000/svg">
<path fill-rule="evenodd" clip-rule="evenodd" d="M20.7071 4.70711C21.0976 4.31658 21.0976 3.68342 20.7071 3.29289C20.3166 2.90237 19.6834 2.90237 19.2929 3.29289L16.7929 5.79289C16.4024 6.18342 16.4024 6.81658 16.7929 7.20711C17.1834 7.59763 17.8166 7.59763 18.2071 7.20711L20.7071 4.70711ZM14.7071 10.7071C15.0976 10.3166 15.0976 9.68342 14.7071 9.29289C14.3166 8.90237 13.6834 8.90237 13.2929 9.29289L10.2929 12.2929C9.90237 12.6834 9.90237 13.3166 10.2929 13.7071C10.6834 14.0976 11.3166 14.0976 11.7071 13.7071L14.7071 10.7071Z" fill="#12131A"/>
<path fill-rule="evenodd" clip-rule="evenodd" d="M4.50502 12.1415C5.21435 11.3761 6.27048 11.0343 7.29377 11.239L11.8495 12.1501L12.7606 16.7058C12.9653 17.7291 12.6234 18.7853 11.8579 19.4946L11.0915 20.2048C9.9088 21.3008 8.0713 21.2659 6.93112 20.1257L3.87384 17.0685C2.7336 15.9283 2.69865 14.0907 3.79472 12.908L4.50502 12.1415ZM6.90153 13.2001C6.56044 13.1319 6.20839 13.2459 5.97195 13.501L5.26165 14.2675C4.8963 14.6617 4.90794 15.2742 5.28803 15.6543L8.34531 18.7115C8.72537 19.0915 9.33787 19.1032 9.7321 18.7378L10.4985 18.0276C10.7537 17.7912 10.8677 17.4391 10.7994 17.098L10.1498 13.8498L6.90153 13.2001Z" fill="#12131A"/>
<path fill-rule="evenodd" clip-rule="evenodd" d="M13.8789 5.7068C15.0504 4.53523 16.9499 4.53523 18.1215 5.7068L18.2931 5.87838C19.4647 7.04995 19.4647 8.94944 18.2931 10.121L17.6215 10.7926C16.4499 11.9642 14.5504 11.9642 13.3789 10.7926L13.2073 10.621C12.0357 9.44945 12.0357 7.54995 13.2073 6.37838L13.8789 5.7068ZM16.7073 7.12102C16.3168 6.73049 15.6836 6.73049 15.2931 7.12102L14.6215 7.79259C14.231 8.18312 14.231 8.81628 14.6215 9.20681L14.7931 9.37838C15.1836 9.7689 15.8168 9.7689 16.2073 9.37838L16.8789 8.7068C17.2694 8.31628 17.2694 7.68312 16.8789 7.29259L16.7073 7.12102Z" fill="#12131A"/>
</svg>
