<svg width="24" height="24" viewBox="0 0 24 24" fill="none" xmlns="http://www.w3.org/2000/svg">
<path fill-rule="evenodd" clip-rule="evenodd" d="M12.0005 6C7.14524 6 4.8903 9.77258 4.09732 11.5534C3.96951 11.8405 3.96951 12.1595 4.09732 12.4466C4.8903 14.2274 7.14524 18 12.0005 18C16.8558 18 19.1105 14.2273 19.9033 12.4465C20.0311 12.1595 20.0311 11.8405 19.9033 11.5535C19.1105 9.77274 16.8558 6 12.0005 6ZM2.27027 10.7399C3.1396 8.78756 5.89172 4 12.0005 4C18.1094 4 20.8613 8.78782 21.7304 10.7401C22.0887 11.5448 22.0887 12.4552 21.7304 13.2599C20.8613 15.2122 18.1094 20 12.0005 20C5.89172 20 3.1396 15.2124 2.27027 13.2601C1.91186 12.4552 1.91186 11.5448 2.27027 10.7399Z" fill="#12131A"/>
<path fill-rule="evenodd" clip-rule="evenodd" d="M9 10C9 9.44772 9.44772 9 10 9C10.5523 9 11 9.44772 11 10V11H13V10C13 9.44772 13.4477 9 14 9C14.5523 9 15 9.44772 15 10V11H16C16.5523 11 17 11.4477 17 12C17 12.5523 16.5523 13 16 13H15V14C15 14.5523 14.5523 15 14 15C13.4477 15 13 14.5523 13 14V13H11V14C11 14.5523 10.5523 15 10 15C9.44772 15 9 14.5523 9 14V13H8C7.44772 13 7 12.5523 7 12C7 11.4477 7.44772 11 8 11H9V10Z" fill="#12131A"/>
</svg>
