<svg width="24" height="24" viewBox="0 0 24 24" fill="none" xmlns="http://www.w3.org/2000/svg">
<path fill-rule="evenodd" clip-rule="evenodd" d="M8.99976 4C7.57261 4 6.6047 5.45186 7.15361 6.76923L7.92284 8.61538C8.13526 9.12519 7.89418 9.71066 7.38438 9.92308C6.87458 10.1355 6.2891 9.89442 6.07669 9.38462L5.30746 7.53846C4.20964 4.90371 6.14545 2 8.99976 2H14.9936C17.843 2 19.7787 4.8946 18.6903 7.52795L17.9239 9.38199C17.713 9.89239 17.1282 10.1351 16.6178 9.92417C16.1074 9.7132 15.8646 9.12841 16.0756 8.61801L16.8419 6.76398C17.3862 5.4473 16.4183 4 14.9936 4H8.99976Z" fill="#12131A"/>
<path fill-rule="evenodd" clip-rule="evenodd" d="M12 8C8.68629 8 6 10.6863 6 14C6 17.3137 8.68629 20 12 20C15.3137 20 18 17.3137 18 14C18 10.6863 15.3137 8 12 8ZM4 14C4 9.58172 7.58172 6 12 6C16.4183 6 20 9.58172 20 14C20 18.4183 16.4183 22 12 22C7.58172 22 4 18.4183 4 14Z" fill="#12131A"/>
</svg>
